<svg width="47" height="47" viewBox="0 0 47 47" fill="none" xmlns="http://www.w3.org/2000/svg">
<path d="M44.1231 20.4592H37.1515V19.2842C37.8422 19.1062 38.5116 18.8498 39.1454 18.4938L40.6409 19.3982C40.8189 19.505 41.0183 19.562 41.2177 19.562C41.5025 19.562 41.7874 19.448 42.001 19.2344L43.0122 18.2232C43.3754 17.86 43.4395 17.3045 43.176 16.863L42.2716 15.3676C42.5921 14.7907 42.8484 14.1854 43.0265 13.5517L44.7213 13.1315C45.2198 13.0104 45.5616 12.5618 45.5616 12.0562V10.6248C45.5616 10.1121 45.2127 9.67059 44.7213 9.54953L43.0265 9.12938C42.8484 8.49559 42.5992 7.89029 42.2716 7.31347L43.176 5.81802C43.4395 5.3765 43.3754 4.82105 43.0122 4.45786L42.001 3.43953C41.6378 3.07635 41.0824 3.01226 40.6409 3.27574L39.1454 4.18014C38.5686 3.85968 37.9633 3.60332 37.3295 3.42529L36.9093 1.73044C36.7883 1.23195 36.3468 0.890137 35.834 0.890137H34.3956C33.8828 0.890137 33.4413 1.23908 33.3203 1.73044L32.9001 3.42529C32.2663 3.60332 31.661 3.85256 31.0842 4.18014L29.5887 3.27574C29.1543 3.01226 28.5918 3.07635 28.2286 3.43953L27.2174 4.45074C26.8542 4.81392 26.783 5.36938 27.0536 5.81089L27.958 7.30635C27.6304 7.88317 27.3812 8.48847 27.2031 9.12226L25.5083 9.54241C25.0098 9.66347 24.668 10.105 24.668 10.6177V12.0491C24.668 12.0847 24.6822 12.1132 24.6822 12.1417H2.87708C1.79465 12.1417 0.911621 13.0247 0.911621 14.1071V38.3121C0.911621 39.3945 1.79465 40.2776 2.87708 40.2776H13.2598V42.1789H10.86C9.77753 42.1789 8.8945 43.062 8.8945 44.1444V45.5757C8.8945 45.8677 9.13662 46.1098 9.42859 46.1098H44.1231C45.2056 46.1098 46.0886 45.2268 46.0886 44.1444V22.4247C46.0886 21.3423 45.2056 20.4592 44.1231 20.4592ZM35.186 12.1488H31.604C31.54 11.8782 31.4972 11.6076 31.4972 11.337C31.4972 9.34302 33.1209 7.71938 35.1148 7.71938C37.1087 7.71938 38.7324 9.34302 38.7324 11.337C38.7324 12.5547 38.1271 13.6514 37.1515 14.3136V14.1142C37.1515 13.0318 36.2684 12.1488 35.186 12.1488ZM25.7647 10.5821L27.7657 10.0907C27.958 10.0409 28.1147 9.89135 28.1574 9.69196C28.3354 8.95135 28.6274 8.23923 29.0333 7.5912C29.1401 7.42029 29.1401 7.20665 29.0333 7.03574L27.9722 5.21983L29.0404 4.2015L30.8065 5.26968C30.9774 5.3765 31.191 5.3765 31.3619 5.26968C32.0171 4.86377 32.7221 4.5718 33.4627 4.39377C33.655 4.35105 33.8116 4.19438 33.8615 4.00211L34.3956 1.96544L35.8697 1.99392L36.361 3.99499C36.4109 4.18726 36.5604 4.34392 36.7598 4.38665C37.5004 4.56468 38.2125 4.85665 38.8606 5.26256C39.0315 5.36938 39.2451 5.36938 39.416 5.26256L41.2319 4.2015L42.2503 5.26968L41.1821 7.03574C41.0753 7.20665 41.0824 7.42029 41.1821 7.5912C41.588 8.24635 41.88 8.95135 42.058 9.69196C42.1007 9.88423 42.2574 10.0409 42.4496 10.0907L44.4863 10.6248L44.4578 12.0989L42.4568 12.5903C42.2645 12.6401 42.1078 12.7897 42.0651 12.9891C41.8886 13.7321 41.5928 14.4415 41.1892 15.0898C41.0824 15.2607 41.0824 15.4744 41.1892 15.6453L42.2503 17.4612L41.1821 18.4795L39.416 17.4114C39.3322 17.3607 39.2362 17.3339 39.1383 17.3339C39.0404 17.3339 38.9443 17.3607 38.8606 17.4114C38.3254 17.7415 37.7481 17.9978 37.1443 18.1733V15.5313C38.7609 14.748 39.7934 13.1457 39.7934 11.3298C39.7934 8.74483 37.6927 6.64408 35.1077 6.64408C32.5227 6.64408 30.4219 8.74483 30.4219 11.3298C30.4219 11.6004 30.4504 11.871 30.5003 12.1417H25.9213C25.8649 12.0968 25.7992 12.0652 25.729 12.0491L25.7647 10.5821ZM2.87708 39.2094C2.38571 39.2094 1.9798 38.8035 1.9798 38.3121V34.1391H21.2356V39.2094H2.87708ZM21.2356 40.2776V42.1789H14.328V40.2776H21.2356ZM9.96268 45.0417V44.1444C9.96268 43.653 10.3686 43.2471 10.86 43.2471H21.2427V44.1444C21.2427 44.472 21.3281 44.771 21.4706 45.0417H9.96268ZM21.2356 22.4247V33.0638H1.9798V14.1142C1.9798 13.6157 2.38571 13.217 2.87708 13.217H35.186C35.6774 13.217 36.0833 13.6229 36.0833 14.1142V20.4592H23.201C22.1186 20.4592 21.2356 21.3423 21.2356 22.4247ZM45.0204 44.1444C45.0204 44.6357 44.6145 45.0417 44.1231 45.0417H23.201C22.7097 45.0417 22.3037 44.6357 22.3037 44.1444V26.2559H45.0204V44.1444ZM45.0204 25.1877H22.3037V22.4318C22.3037 21.9333 22.7097 21.5345 23.201 21.5345H44.1231C44.6216 21.5345 45.0204 21.9404 45.0204 22.4318V25.1877Z" fill="white"/>
</svg>
