<svg width="900" height="540" viewBox="0 0 900 540" fill="none" xmlns="http://www.w3.org/2000/svg">
<rect x="0.584416" y="0.584416" width="88.8312" height="88.8312" stroke="#131313" stroke-width="1.16883"/>
<rect x="90.5844" y="0.584416" width="88.8312" height="88.8312" stroke="#131313" stroke-width="1.16883"/>
<rect x="180.584" y="0.584416" width="88.8312" height="88.8312" stroke="#131313" stroke-width="1.16883"/>
<rect x="270.584" y="0.584416" width="88.8312" height="88.8312" stroke="#131313" stroke-width="1.16883"/>
<rect x="360.584" y="0.584416" width="88.8312" height="88.8312" stroke="#131313" stroke-width="1.16883"/>
<rect x="450.584" y="0.584416" width="88.8312" height="88.8312" stroke="#131313" stroke-width="1.16883"/>
<rect x="540.584" y="0.584416" width="88.8312" height="88.8312" stroke="#131313" stroke-width="1.16883"/>
<rect x="630.584" y="0.584416" width="88.8312" height="88.8312" stroke="#131313" stroke-width="1.16883"/>
<rect x="720.584" y="0.584416" width="88.8312" height="88.8312" stroke="#131313" stroke-width="1.16883"/>
<rect x="0.584416" y="90.5844" width="88.8312" height="88.8312" stroke="#131313" stroke-width="1.16883"/>
<rect x="90.5844" y="90.5844" width="88.8312" height="88.8312" stroke="#131313" stroke-width="1.16883"/>
<rect x="180.584" y="90.5844" width="88.8312" height="88.8312" stroke="#131313" stroke-width="1.16883"/>
<rect x="270.584" y="90.5844" width="88.8312" height="88.8312" stroke="#131313" stroke-width="1.16883"/>
<rect x="360.584" y="90.5844" width="88.8312" height="88.8312" stroke="#131313" stroke-width="1.16883"/>
<rect x="450.584" y="90.5844" width="88.8312" height="88.8312" stroke="#131313" stroke-width="1.16883"/>
<rect x="540.584" y="90.5844" width="88.8312" height="88.8312" stroke="#131313" stroke-width="1.16883"/>
<rect x="630.584" y="90.5844" width="88.8312" height="88.8312" stroke="#131313" stroke-width="1.16883"/>
<rect x="720.584" y="90.5844" width="88.8312" height="88.8312" stroke="#131313" stroke-width="1.16883"/>
<rect x="0.584416" y="180.584" width="88.8312" height="88.8312" stroke="#131313" stroke-width="1.16883"/>
<rect x="90.5844" y="180.584" width="88.8312" height="88.8312" stroke="#131313" stroke-width="1.16883"/>
<rect x="180.584" y="180.584" width="88.8312" height="88.8312" stroke="#131313" stroke-width="1.16883"/>
<rect x="270.584" y="180.584" width="88.8312" height="88.8312" stroke="#131313" stroke-width="1.16883"/>
<rect x="360.584" y="180.584" width="88.8312" height="88.8312" stroke="#131313" stroke-width="1.16883"/>
<rect x="450.584" y="180.584" width="88.8312" height="88.8312" stroke="#131313" stroke-width="1.16883"/>
<rect x="540.584" y="180.584" width="88.8312" height="88.8312" stroke="#131313" stroke-width="1.16883"/>
<rect x="630.584" y="180.584" width="88.8312" height="88.8312" stroke="#131313" stroke-width="1.16883"/>
<rect x="720.584" y="180.584" width="88.8312" height="88.8312" stroke="#131313" stroke-width="1.16883"/>
<rect x="0.584416" y="270.584" width="88.8312" height="88.8312" stroke="#131313" stroke-width="1.16883"/>
<rect opacity="0.5" x="90" y="270" width="90" height="90" fill="#D9D9D9" fill-opacity="0.15"/>
<rect x="180.584" y="270.584" width="88.8312" height="88.8312" stroke="#131313" stroke-width="1.16883"/>
<rect x="270.584" y="270.584" width="88.8312" height="88.8312" stroke="#131313" stroke-width="1.16883"/>
<rect x="360.584" y="270.584" width="88.8312" height="88.8312" stroke="#131313" stroke-width="1.16883"/>
<rect x="450.584" y="270.584" width="88.8312" height="88.8312" stroke="#131313" stroke-width="1.16883"/>
<rect x="540.584" y="270.584" width="88.8312" height="88.8312" stroke="#131313" stroke-width="1.16883"/>
<rect x="630.584" y="270.584" width="88.8312" height="88.8312" stroke="#131313" stroke-width="1.16883"/>
<rect x="720.584" y="270.584" width="88.8312" height="88.8312" stroke="#131313" stroke-width="1.16883"/>
<rect x="0.584416" y="360.584" width="88.8312" height="88.8312" stroke="#131313" stroke-width="1.16883"/>
<rect x="90.5844" y="360.584" width="88.8312" height="88.8312" stroke="#131313" stroke-width="1.16883"/>
<rect x="180.584" y="360.584" width="88.8312" height="88.8312" stroke="#131313" stroke-width="1.16883"/>
<rect x="270.584" y="360.584" width="88.8312" height="88.8312" stroke="#131313" stroke-width="1.16883"/>
<rect x="360.584" y="360.584" width="88.8312" height="88.8312" stroke="#131313" stroke-width="1.16883"/>
<rect x="450.584" y="360.584" width="88.8312" height="88.8312" stroke="#131313" stroke-width="1.16883"/>
<rect x="540.584" y="360.584" width="88.8312" height="88.8312" stroke="#131313" stroke-width="1.16883"/>
<rect x="630.584" y="360.584" width="88.8312" height="88.8312" stroke="#131313" stroke-width="1.16883"/>
<rect opacity="0.5" x="720" y="360" width="90" height="90" fill="white" fill-opacity="0.15"/>
<rect x="0.584416" y="450.584" width="88.8312" height="88.8312" stroke="#131313" stroke-width="1.16883"/>
<rect x="90.5844" y="450.584" width="88.8312" height="88.8312" stroke="#131313" stroke-width="1.16883"/>
<rect opacity="0.5" x="180" y="450" width="90" height="90" fill="white" fill-opacity="0.15"/>
<rect x="270.584" y="450.584" width="88.8312" height="88.8312" stroke="#131313" stroke-width="1.16883"/>
<rect x="360.584" y="450.584" width="88.8312" height="88.8312" stroke="#131313" stroke-width="1.16883"/>
<rect x="450.584" y="450.584" width="88.8312" height="88.8312" stroke="#131313" stroke-width="1.16883"/>
<rect x="540.584" y="450.584" width="88.8312" height="88.8312" stroke="#131313" stroke-width="1.16883"/>
<rect x="630.584" y="450.584" width="88.8312" height="88.8312" stroke="#131313" stroke-width="1.16883"/>
<rect x="720.584" y="450.584" width="88.8312" height="88.8312" stroke="#131313" stroke-width="1.16883"/>
<rect opacity="0.5" x="810" width="90" height="90" fill="#D9D9D9" fill-opacity="0.2"/>
<rect x="810.584" y="90.5844" width="88.8312" height="88.8312" stroke="#131313" stroke-width="1.16883"/>
<rect x="810.584" y="180.584" width="88.8312" height="88.8312" stroke="#131313" stroke-width="1.16883"/>
<rect x="810.584" y="270.584" width="88.8312" height="88.8312" stroke="#131313" stroke-width="1.16883"/>
<rect x="810.584" y="360.584" width="88.8312" height="88.8312" stroke="#131313" stroke-width="1.16883"/>
<rect x="810.584" y="450.584" width="88.8312" height="88.8312" stroke="#131313" stroke-width="1.16883"/>
<circle cx="810" cy="90" r="4.67532" fill="white" fill-opacity="0.49"/>
<circle cx="810" cy="180" r="4.67532" fill="white" fill-opacity="0.49"/>
<circle cx="810" cy="270" r="4.67532" fill="white" fill-opacity="0.49"/>
<circle cx="89.9995" cy="90" r="4.67532" fill="white" fill-opacity="0.49"/>
<circle cx="89.9995" cy="180" r="4.67532" fill="white" fill-opacity="0.49"/>
<circle cx="89.9995" cy="270" r="4.67532" fill="white" fill-opacity="0.49"/>
</svg>
