<svg width="53" height="53" viewBox="0 0 53 53" fill="none" xmlns="http://www.w3.org/2000/svg">
<path d="M28.9844 6.625H24.0156C23.796 6.625 23.5854 6.53775 23.4301 6.38245C23.2747 6.22714 23.1875 6.01651 23.1875 5.79688C23.1875 5.57724 23.2747 5.36661 23.4301 5.2113C23.5854 5.056 23.796 4.96875 24.0156 4.96875H28.9844C29.204 4.96875 29.4146 5.056 29.5699 5.2113C29.7253 5.36661 29.8125 5.57724 29.8125 5.79688C29.8125 6.01651 29.7253 6.22714 29.5699 6.38245C29.4146 6.53775 29.204 6.625 28.9844 6.625ZM35.6094 51.3438H17.3906C16.2929 51.3424 15.2404 50.9058 14.4642 50.1295C13.688 49.3533 13.2513 48.3009 13.25 47.2031V19.0469C13.25 18.8272 13.3372 18.6166 13.4926 18.4613C13.6479 18.306 13.8585 18.2188 14.0781 18.2188C14.2978 18.2188 14.5084 18.306 14.6637 18.4613C14.819 18.6166 14.9062 18.8272 14.9062 19.0469V47.2031C14.9062 48.5728 16.0209 49.6875 17.3906 49.6875H35.6094C36.9791 49.6875 38.0938 48.5728 38.0938 47.2031V19.0469C38.0938 18.8272 38.181 18.6166 38.3363 18.4613C38.4916 18.306 38.7022 18.2188 38.9219 18.2188C39.1415 18.2188 39.3521 18.306 39.5074 18.4613C39.6628 18.6166 39.75 18.8272 39.75 19.0469V47.2031C39.75 49.4854 37.8933 51.3438 35.6094 51.3438Z" fill="white"/>
<path d="M38.9219 24.8437C38.7022 24.8437 38.4916 24.7565 38.3363 24.6012C38.181 24.4459 38.0938 24.2353 38.0938 24.0156V5.79687C38.0938 4.42716 36.9791 3.3125 35.6094 3.3125H17.3906C16.0209 3.3125 14.9062 4.42716 14.9062 5.79687V24.0156C14.9062 24.2353 14.819 24.4459 14.6637 24.6012C14.5084 24.7565 14.2978 24.8437 14.0781 24.8437C13.8585 24.8437 13.6479 24.7565 13.4926 24.6012C13.3372 24.4459 13.25 24.2353 13.25 24.0156V5.79687C13.25 3.51456 15.1067 1.65625 17.3906 1.65625H35.6094C37.8933 1.65625 39.75 3.51456 39.75 5.79687V24.0156C39.75 24.2353 39.6628 24.4459 39.5074 24.6012C39.3521 24.7565 39.1415 24.8437 38.9219 24.8437ZM43.8906 10.0203C43.4335 10.0203 43.0625 9.73212 43.0625 9.275V9.10937C43.0625 8.88974 43.1497 8.67911 43.305 8.5238C43.4604 8.3685 43.671 8.28125 43.8906 8.28125C44.1103 8.28125 44.3209 8.3685 44.4762 8.5238C44.6315 8.67911 44.7188 8.88974 44.7188 9.10937C44.7188 9.5665 44.3478 10.0203 43.8906 10.0203ZM43.8906 13.3328C43.4335 13.3328 43.0625 13.0446 43.0625 12.5875V12.4219C43.0625 12.2022 43.1497 11.9916 43.305 11.8363C43.4604 11.681 43.671 11.5937 43.8906 11.5937C44.1103 11.5937 44.3209 11.681 44.4762 11.8363C44.6315 11.9916 44.7188 12.2022 44.7188 12.4219C44.7188 12.879 44.3478 13.3328 43.8906 13.3328ZM43.8906 16.6453C43.4335 16.6453 43.0625 16.3571 43.0625 15.9V15.7344C43.0625 15.5147 43.1497 15.3041 43.305 15.1488C43.4604 14.9935 43.671 14.9062 43.8906 14.9062C44.1103 14.9062 44.3209 14.9935 44.4762 15.1488C44.6315 15.3041 44.7188 15.5147 44.7188 15.7344C44.7188 16.1915 44.3478 16.6453 43.8906 16.6453ZM9.10938 38.0109C8.65225 38.0109 8.28125 37.7227 8.28125 37.2656V37.1C8.28125 36.8804 8.3685 36.6697 8.5238 36.5144C8.67911 36.3591 8.88974 36.2719 9.10938 36.2719C9.32901 36.2719 9.53964 36.3591 9.69495 36.5144C9.85025 36.6697 9.9375 36.8804 9.9375 37.1C9.9375 37.5571 9.5665 38.0109 9.10938 38.0109ZM9.10938 41.3234C8.65225 41.3234 8.28125 41.0352 8.28125 40.5781V40.4125C8.28125 40.1929 8.3685 39.9822 8.5238 39.8269C8.67911 39.6716 8.88974 39.5844 9.10938 39.5844C9.32901 39.5844 9.53964 39.6716 9.69495 39.8269C9.85025 39.9822 9.9375 40.1929 9.9375 40.4125C9.9375 40.8696 9.5665 41.3234 9.10938 41.3234ZM9.10938 44.6359C8.65225 44.6359 8.28125 44.3477 8.28125 43.8906V43.725C8.28125 43.5054 8.3685 43.2947 8.5238 43.1394C8.67911 42.9841 8.88974 42.8969 9.10938 42.8969C9.32901 42.8969 9.53964 42.9841 9.69495 43.1394C9.85025 43.2947 9.9375 43.5054 9.9375 43.725C9.9375 44.1821 9.5665 44.6359 9.10938 44.6359Z" fill="white"/>
<path d="M41.1429 44.7188C41.0194 44.7188 40.8974 44.6912 40.7859 44.638C40.6744 44.5847 40.5763 44.5073 40.4986 44.4112C40.421 44.3151 40.3658 44.2029 40.3371 44.0827C40.3085 43.9626 40.3071 43.8375 40.333 43.7167L40.8796 41.1827C40.9122 41.0305 40.9872 40.8906 41.0959 40.7792C41.2046 40.6679 41.3427 40.5895 41.494 40.5533C42.2932 40.3573 43.057 40.0383 43.7581 39.6076C43.8903 39.5269 44.0425 39.4849 44.1974 39.4863C44.3523 39.4878 44.5036 39.5327 44.6343 39.6158L46.274 40.6642L47.2893 39.6407L46.2408 38.0142C46.1567 37.8835 46.111 37.7317 46.1089 37.5762C46.1069 37.4207 46.1486 37.2677 46.2293 37.1348C46.6601 36.434 46.9787 35.67 47.1733 34.8707C47.2097 34.7198 47.2877 34.5821 47.3983 34.4732C47.509 34.3643 47.6479 34.2886 47.7994 34.2546L49.6875 33.8355V32.4161L47.801 31.9971C47.6496 31.9631 47.5106 31.8873 47.4 31.7785C47.2894 31.6696 47.2114 31.5319 47.175 31.381C46.9796 30.5819 46.6611 29.818 46.2309 29.1169C46.1496 28.9845 46.1073 28.8319 46.1091 28.6765C46.1108 28.5212 46.1565 28.3695 46.2408 28.2391L47.2909 26.5977L46.2773 25.5841L44.6359 26.6342C44.5054 26.7177 44.354 26.7628 44.199 26.7643C44.0441 26.7657 43.8919 26.7235 43.7598 26.6424C43.0584 26.2123 42.2947 25.8933 41.4957 25.6967C41.3443 25.6605 41.2063 25.5821 41.0976 25.4708C40.9888 25.3594 40.9138 25.2195 40.8812 25.0673L40.4738 23.1875H39.75C39.5304 23.1875 39.3197 23.1003 39.1644 22.9449C39.0091 22.7896 38.9219 22.579 38.9219 22.3594C38.9219 22.1397 39.0091 21.9291 39.1644 21.7738C39.3197 21.6185 39.5304 21.5312 39.75 21.5312H41.1413C41.3304 21.5316 41.5138 21.5967 41.6609 21.7157C41.8079 21.8347 41.9098 22.0005 41.9495 22.1855L42.3917 24.2276C42.9979 24.4115 43.5925 24.6599 44.1656 24.9696L45.9444 23.8318C46.1034 23.7301 46.2925 23.6859 46.4801 23.7064C46.6678 23.7269 46.8428 23.8108 46.9762 23.9444L48.9323 25.8988C49.0656 26.0324 49.1492 26.2075 49.1694 26.3952C49.1896 26.5828 49.1451 26.7717 49.0432 26.9306L47.9054 28.7094C48.2151 29.2842 48.4635 29.8787 48.6474 30.4866L50.6928 30.9404C51.0738 31.0249 51.3438 31.3628 51.3438 31.7503V34.4997C51.3437 34.6882 51.2793 34.871 51.1612 35.018C51.0432 35.1649 50.8785 35.2672 50.6945 35.3079L48.649 35.7617C48.4621 36.3771 48.2135 36.9719 47.907 37.5372L49.0432 39.2995C49.1461 39.4578 49.1915 39.6467 49.1719 39.8345C49.1523 40.0223 49.0689 40.1977 48.9356 40.3313L46.9795 42.3023C46.8461 42.4362 46.6709 42.5206 46.4829 42.5414C46.2949 42.5622 46.1055 42.5181 45.946 42.4166L44.1672 41.2787C43.6022 41.5846 43.0079 41.8332 42.3934 42.0207L41.9512 44.0629C41.9115 44.248 41.8097 44.414 41.6627 44.5333C41.5156 44.6526 41.3322 44.718 41.1429 44.7188Z" fill="white"/>
<path d="M42.0539 37.3948C41.8766 37.3945 41.704 37.3373 41.5616 37.2316C41.4192 37.1258 41.3146 36.9772 41.263 36.8075C41.2115 36.6378 41.2157 36.456 41.2752 36.2889C41.3347 36.1219 41.4463 35.9783 41.5935 35.8794C42.2291 35.451 42.6967 34.8156 42.9167 34.0813C43.1367 33.3471 43.0955 32.5593 42.8001 31.8519C42.5048 31.1446 41.9734 30.5615 41.2966 30.2017C40.6197 29.842 39.8391 29.7279 39.0876 29.8788C38.981 29.9007 38.8712 29.9013 38.7643 29.8807C38.6575 29.8601 38.5558 29.8187 38.465 29.7588C38.3741 29.6989 38.296 29.6217 38.235 29.5316C38.1741 29.4415 38.1314 29.3403 38.1096 29.2337C38.0877 29.1271 38.087 29.0173 38.1076 28.9104C38.1282 28.8036 38.1697 28.7019 38.2296 28.6111C38.2895 28.5202 38.3667 28.4421 38.4568 28.3811C38.5469 28.3202 38.6481 28.2775 38.7547 28.2557C39.4766 28.1093 40.2221 28.125 40.9373 28.3018C41.6524 28.4785 42.3194 28.8119 42.89 29.2778C43.4607 29.7437 43.9207 30.3305 44.237 30.9958C44.5532 31.6611 44.7178 32.3884 44.7188 33.125C44.719 33.9414 44.5179 34.7453 44.1334 35.4655C43.7489 36.1857 43.1928 36.8 42.5144 37.2541C42.3783 37.3457 42.218 37.3947 42.0539 37.3948ZM13.2501 24.8438C12.1825 24.8452 11.1429 24.5026 10.2853 23.8668C9.4277 23.2311 8.79777 22.3359 8.48886 21.314C8.17995 20.2921 8.2085 19.1978 8.57027 18.1934C8.93205 17.189 9.60781 16.3279 10.4974 15.7377C10.6801 15.6236 10.9001 15.5853 11.1107 15.6307C11.3213 15.6762 11.5059 15.8019 11.6253 15.9812C11.7446 16.1605 11.7895 16.3793 11.7502 16.5911C11.7109 16.8029 11.5907 16.9911 11.415 17.1157C10.7793 17.5424 10.3109 18.176 10.0892 18.9088C9.86759 19.6416 9.90634 20.4285 10.1989 21.136C10.4915 21.8434 11.0199 22.4279 11.6944 22.7901C12.3689 23.1522 13.148 23.2699 13.8993 23.1229C14.1147 23.0805 14.3382 23.1249 14.5209 23.2465C14.7037 23.3681 14.8309 23.5571 14.8749 23.7722C14.8963 23.8788 14.8966 23.9886 14.8755 24.0952C14.8545 24.2019 14.8126 24.3034 14.7523 24.3939C14.692 24.4843 14.6144 24.562 14.5241 24.6225C14.4337 24.6829 14.3323 24.7249 14.2256 24.7461C13.9046 24.8114 13.5777 24.8442 13.2501 24.8438Z" fill="white"/>
<path d="M13.25 31.4687H11.8588C11.6696 31.4684 11.4862 31.4033 11.3391 31.2843C11.1921 31.1652 11.0902 30.9994 11.0505 30.8145L10.6083 28.7723C9.99362 28.5851 9.39935 28.3365 8.83444 28.0303L7.05563 29.1682C6.89655 29.2698 6.70753 29.3141 6.51987 29.2936C6.33221 29.2731 6.15718 29.1891 6.02378 29.0555L4.06775 27.1012C3.93444 26.9676 3.85077 26.7924 3.83059 26.6048C3.8104 26.4171 3.85493 26.2282 3.95678 26.0693L5.09463 24.2905C4.78843 23.7245 4.53985 23.1291 4.35263 22.5134L2.30716 22.0595C2.12267 22.0188 1.9576 21.9163 1.83924 21.7691C1.72089 21.6218 1.65633 21.4386 1.65625 21.2496V18.5003C1.65632 18.3118 1.7207 18.1289 1.83875 17.982C1.9568 17.835 2.12145 17.7327 2.3055 17.692L4.35097 17.2382C4.53481 16.6304 4.78325 16.0358 5.09297 15.4627L3.95844 13.6988C3.85557 13.5405 3.81013 13.3516 3.82973 13.1638C3.84932 12.976 3.93275 12.8006 4.06609 12.667L6.02213 10.696C6.15511 10.5612 6.33041 10.4763 6.5186 10.4555C6.70679 10.4347 6.89641 10.4793 7.05563 10.5817L8.83444 11.7196C9.39949 11.4137 9.99373 11.1651 10.6083 10.9776L11.0505 8.93542C11.0706 8.82635 11.1123 8.72242 11.1733 8.62979C11.2343 8.53717 11.3133 8.45774 11.4055 8.39621C11.4978 8.33469 11.6015 8.29232 11.7104 8.27163C11.8194 8.25093 11.9314 8.25233 12.0398 8.27574C12.1482 8.29915 12.2508 8.3441 12.3415 8.40791C12.4322 8.47172 12.5091 8.5531 12.5678 8.64722C12.6264 8.74134 12.6656 8.84629 12.6829 8.95582C12.7002 9.06536 12.6954 9.17726 12.6687 9.28489L12.1221 11.819C12.0895 11.9711 12.0145 12.111 11.9058 12.2224C11.797 12.3338 11.659 12.4121 11.5076 12.4483C10.708 12.6446 9.94371 12.9636 9.24188 13.394C9.10967 13.4747 8.95749 13.5167 8.80261 13.5153C8.64774 13.5138 8.49637 13.4689 8.36572 13.3858L6.72603 12.3374L5.70909 13.3609L6.7575 14.9874C6.8424 15.1179 6.88856 15.2697 6.89061 15.4254C6.89266 15.5811 6.85052 15.7341 6.76909 15.8668C6.3382 16.5676 6.01966 17.3316 5.82503 18.1309C5.7886 18.2818 5.71065 18.4195 5.6 18.5284C5.48936 18.6373 5.35044 18.713 5.19897 18.747L3.3125 19.1644V20.5838L5.19897 21.0029C5.35044 21.0369 5.48936 21.1126 5.6 21.2215C5.71065 21.3304 5.7886 21.4681 5.82503 21.619C6.01219 22.4007 6.33184 23.1626 6.76909 23.8831C6.93472 24.153 6.93141 24.4942 6.75916 24.7609L5.70909 26.4006L6.72272 27.4142L8.36406 26.3641C8.49485 26.2813 8.64617 26.2367 8.80096 26.2352C8.95576 26.2338 9.10789 26.2755 9.24022 26.3559C9.96234 26.7948 10.7242 27.1128 11.5043 27.3016C11.6557 27.3378 11.7937 27.4161 11.9024 27.5275C12.0112 27.6389 12.0862 27.7788 12.1188 27.931L12.5262 29.8125H13.25C13.4696 29.8125 13.6803 29.8997 13.8356 30.055C13.9909 30.2103 14.0781 30.4209 14.0781 30.6406C14.0781 30.8602 13.9909 31.0708 13.8356 31.2261C13.6803 31.3815 13.4696 31.4687 13.25 31.4687ZM25.6719 30.6406C25.546 30.6409 25.4217 30.6124 25.3085 30.5573C25.1953 30.5022 25.0961 30.422 25.0186 30.3228C24.9411 30.2236 24.8873 30.108 24.8613 29.9848C24.8353 29.8616 24.8378 29.7341 24.8686 29.612L26.5248 22.987C26.5504 22.8811 26.5968 22.7813 26.6612 22.6935C26.7257 22.6057 26.807 22.5315 26.9004 22.4754C26.9939 22.4193 27.0975 22.3824 27.2053 22.3667C27.3131 22.351 27.423 22.357 27.5285 22.3842C27.6341 22.4103 27.7335 22.457 27.821 22.5217C27.9085 22.5863 27.9823 22.6676 28.0384 22.7608C28.0944 22.8541 28.1314 22.9575 28.1474 23.0651C28.1633 23.1727 28.1579 23.2824 28.1314 23.3879L26.4752 30.0129C26.431 30.1924 26.3278 30.3518 26.1821 30.4657C26.0364 30.5795 25.8567 30.6411 25.6719 30.6406ZM30.6406 30.6406C30.477 30.6405 30.317 30.592 30.1809 30.5011C30.0448 30.4102 29.9387 30.281 29.8759 30.1299C29.8132 29.9787 29.7967 29.8124 29.8284 29.6518C29.8602 29.4912 29.9388 29.3437 30.0543 29.2278L32.7822 26.5L30.056 23.7738C29.9051 23.6176 29.8216 23.4084 29.8235 23.1913C29.8254 22.9741 29.9125 22.7664 30.0661 22.6129C30.2196 22.4593 30.4273 22.3722 30.6444 22.3704C30.8616 22.3685 31.0708 22.4519 31.2269 22.6028L34.5394 25.9153C34.6947 26.0706 34.7819 26.2812 34.7819 26.5008C34.7819 26.7204 34.6947 26.931 34.5394 27.0863L31.2269 30.3988C31.0711 30.5537 30.8603 30.6406 30.6406 30.6406ZM22.3594 30.6406C22.1397 30.6406 21.9289 30.5537 21.7731 30.3988L18.4606 27.0863C18.3053 26.931 18.2181 26.7204 18.2181 26.5008C18.2181 26.2812 18.3053 26.0706 18.4606 25.9153L21.7731 22.6028C21.9293 22.4519 22.1384 22.3685 22.3556 22.3704C22.5727 22.3722 22.7804 22.4593 22.9339 22.6129C23.0875 22.7664 23.1746 22.9741 23.1765 23.1913C23.1784 23.4084 23.0949 23.6176 22.944 23.7738L20.2178 26.5L22.944 29.2261C23.06 29.3419 23.1391 29.4894 23.1713 29.6501C23.2034 29.8108 23.1871 29.9774 23.1245 30.1288C23.0619 30.2802 22.9558 30.4097 22.8196 30.5008C22.6834 30.5919 22.5232 30.6405 22.3594 30.6406Z" fill="white"/>
</svg>
