<svg width="47" height="47" viewBox="0 0 47 47" fill="none" xmlns="http://www.w3.org/2000/svg">
<path d="M14.0448 39.2891C13.9044 39.1564 13.7185 39.0824 13.5252 39.0824C13.332 39.0824 13.1461 39.1564 13.0057 39.2891L12.073 40.2218C9.58413 36.8438 8.2111 32.7736 8.14528 28.5782C8.07947 24.3829 9.32413 20.2716 11.7058 16.8172C12.4194 17.2099 13.2409 17.3607 14.0474 17.2471C14.8539 17.1335 15.6019 16.7616 16.1792 16.1872C16.7566 15.6127 17.1322 14.8666 17.2498 14.0607C17.3675 13.2548 17.2208 12.4325 16.8318 11.717C20.2861 9.33531 24.3974 8.09065 28.5928 8.15647C32.7881 8.22228 36.8583 9.59531 40.2363 12.0842L39.2889 13.0058C39.1524 13.1435 39.0758 13.3296 39.076 13.5236C39.0754 13.6202 39.0939 13.716 39.1305 13.8055C39.167 13.895 39.2209 13.9763 39.2889 14.045L42.5275 17.2579C42.6651 17.3946 42.8513 17.4714 43.0453 17.4714C43.2393 17.4714 43.4254 17.3946 43.563 17.2579L46.7832 14.0376C46.8515 13.9694 46.9057 13.8884 46.9426 13.7993C46.9796 13.7101 46.9986 13.6146 46.9986 13.518C46.9986 13.4215 46.9796 13.326 46.9426 13.2368C46.9057 13.1477 46.8515 13.0667 46.7832 12.9985L43.563 9.77825C43.4254 9.64147 43.2393 9.5647 43.0453 9.5647C42.8513 9.5647 42.6651 9.64147 42.5275 9.77825L41.2828 11.0157C38.2149 8.70714 34.5879 7.25676 30.7742 6.81344C26.9605 6.37012 23.0976 6.94985 19.582 8.49309L23.8157 4.27043C24.2957 4.49981 24.8415 4.55173 25.3561 4.41698C25.8708 4.28224 26.3211 3.96954 26.6272 3.53437C26.9333 3.09919 27.0753 2.56967 27.0281 2.03975C26.9808 1.50982 26.7474 1.01375 26.3693 0.639543C25.9911 0.265333 25.4926 0.0371773 24.9622 -0.00444924C24.4318 -0.0460758 23.9038 0.101518 23.4719 0.412149C23.04 0.72278 22.732 1.17637 22.6027 1.69244C22.4734 2.20851 22.5311 2.7537 22.7655 3.23129L15.62 10.3878C14.8945 9.90111 14.0226 9.68144 13.1531 9.76628C12.2836 9.85112 11.4705 10.2352 10.8528 10.853C10.2351 11.4707 9.85096 12.2838 9.76611 13.1532C9.68127 14.0227 9.90095 14.8947 10.3876 15.6202L3.23113 22.7657C2.75166 22.532 2.2049 22.4759 1.68799 22.6074C1.17108 22.7388 0.717503 23.0492 0.40786 23.4835C0.0982174 23.9178 -0.0474377 24.4478 -0.00322274 24.9793C0.0409922 25.5108 0.272214 26.0094 0.649354 26.3866C1.02649 26.7637 1.52513 26.9949 2.05665 27.0392C2.58817 27.0834 3.11815 26.9377 3.55243 26.6281C3.9867 26.3184 4.29713 25.8649 4.42856 25.3479C4.55999 24.831 4.5039 24.2843 4.27027 23.8048L8.50394 19.5822C6.95916 23.0968 6.3776 26.9592 6.81898 30.7729C7.26036 34.5866 8.70877 38.2141 11.0155 41.2829L9.77441 42.5277C9.63763 42.6653 9.56086 42.8514 9.56086 43.0454C9.56086 43.2394 9.63763 43.4256 9.77441 43.5632L12.9946 46.7834C13.1317 46.9213 13.3179 46.9992 13.5124 47C13.6093 47.0001 13.7052 46.981 13.7947 46.9438C13.8842 46.9067 13.9655 46.8521 14.0338 46.7834L17.2577 43.5632C17.3945 43.4256 17.4712 43.2394 17.4712 43.0454C17.4712 42.8514 17.3945 42.6653 17.2577 42.5277L14.0448 39.2891ZM43.0526 11.3278L45.2337 13.5089L43.0526 15.69L40.8715 13.5089L43.0526 11.3278ZM24.2343 1.70012C24.3434 1.5901 24.4827 1.51498 24.6346 1.48429C24.7865 1.4536 24.9441 1.46871 25.0874 1.52772C25.2306 1.58673 25.3532 1.68697 25.4394 1.81572C25.5256 1.94448 25.5716 2.09594 25.5716 2.2509C25.5716 2.40586 25.5256 2.55732 25.4394 2.68608C25.3532 2.81483 25.2306 2.91508 25.0874 2.97408C24.9441 3.03309 24.7865 3.04821 24.6346 3.01751C24.4827 2.98682 24.3434 2.9117 24.2343 2.80168C24.1619 2.72939 24.1044 2.64353 24.0653 2.54902C24.0261 2.45451 24.0059 2.35321 24.0059 2.2509C24.0059 2.14859 24.0261 2.04729 24.0653 1.95278C24.1044 1.85828 24.1619 1.77242 24.2343 1.70012ZM11.8968 11.8969C12.11 11.6826 12.3635 11.5126 12.6426 11.3966C12.9218 11.2806 13.2211 11.2209 13.5234 11.2209C13.8257 11.2209 14.125 11.2806 14.4042 11.3966C14.6833 11.5126 14.9368 11.6826 15.15 11.8969C15.4724 12.2187 15.692 12.629 15.7812 13.0757C15.8703 13.5224 15.8249 13.9855 15.6508 14.4064C15.4766 14.8273 15.1815 15.187 14.8028 15.4402C14.4242 15.6933 13.9789 15.8284 13.5234 15.8284C13.0679 15.8284 12.6226 15.6933 12.2439 15.4402C11.8653 15.187 11.5702 14.8273 11.396 14.4064C11.2219 13.9855 11.1765 13.5224 11.2656 13.0757C11.3548 12.629 11.5744 12.2187 11.8968 11.8969ZM2.80519 25.336C2.65526 25.461 2.464 25.5254 2.26898 25.5166C2.07396 25.5078 1.88929 25.4264 1.75125 25.2884C1.61321 25.1503 1.53178 24.9656 1.52297 24.7706C1.51416 24.5756 1.5786 24.3843 1.70363 24.2344C1.85058 24.09 2.04837 24.0091 2.25441 24.0091C2.46045 24.0091 2.65824 24.09 2.80519 24.2344C2.87758 24.3067 2.935 24.3926 2.97418 24.4871C3.01337 24.5816 3.03353 24.6829 3.03353 24.7852C3.03353 24.8875 3.01337 24.9888 2.97418 25.0833C2.935 25.1778 2.87758 25.2637 2.80519 25.336ZM13.5234 45.2118L11.3423 43.0307L13.5234 40.8497L15.7045 43.0307L13.5234 45.2118Z" fill="white"/>
</svg>
