<svg width="50" height="51" viewBox="0 0 50 51" fill="none" xmlns="http://www.w3.org/2000/svg">
<g clip-path="url(#clip0_4665_478)">
<path d="M1.9228 10.8882C1.82343 9.76186 1.88908 8.62704 2.11766 7.51968C2.4235 6.14042 3.02405 4.99543 3.9023 4.1175C5.13292 2.88592 6.8636 2.21092 9.03955 2.11098C10.0935 2.07141 11.1488 2.14335 12.1876 2.32558L12.4643 0.752345C11.3121 0.550189 10.1418 0.470721 8.97287 0.515272C6.37986 0.634968 4.29377 1.46668 2.77339 2.98835C1.67518 4.08616 0.929337 5.49604 0.557376 7.1805C0.556737 7.18362 0.555777 7.18706 0.555138 7.19009C0.293647 8.45177 0.218514 9.74497 0.332137 11.0284L1.9228 10.8882ZM5.42533 21.3236C4.9443 20.4459 4.50326 19.5639 4.11411 18.7012L2.65833 19.3581C3.06435 20.2578 3.52411 21.1776 4.02512 22.0912L5.42533 21.3236ZM0.796448 13.9741C0.996701 14.8297 1.24003 15.6747 1.5255 16.5058L3.03685 15.9895C2.76875 15.2096 2.54026 14.4166 2.35225 13.6136L0.796448 13.9741ZM11.6617 30.1185C11.592 30.0389 11.5226 29.9598 11.4536 29.8803L10.2483 30.9275C10.3189 31.009 10.3899 31.0905 10.4617 31.172C10.8726 31.6396 11.2907 32.1009 11.716 32.5556C11.908 32.7607 12.1015 32.9644 12.2963 33.1669L13.4473 32.0596C12.8377 31.426 12.2423 30.7788 11.6617 30.1185ZM8.31882 28.581L9.57934 27.6008C9.46376 27.4519 9.34902 27.3024 9.23512 27.1523C8.75412 26.5199 8.28779 25.8766 7.83651 25.2227L6.52162 26.1291C6.98689 26.8032 7.4677 27.4665 7.96365 28.1184C8.08097 28.2733 8.19934 28.4275 8.31874 28.5809L8.31882 28.581ZM13.6546 34.5342C15.1633 36.0065 16.7509 37.3956 18.4104 38.6954C20.661 40.4668 23.0633 42.0363 25.5895 43.3857C27.065 44.1712 28.594 44.8516 30.1652 45.4218L28.7065 45.8395L29.1457 47.3749L33.2291 46.2065C33.6529 46.0853 33.8981 45.643 33.7769 45.2188L32.7129 41.4996L31.1772 41.9388L31.8536 44.3015C29.9473 43.6983 28.101 42.9196 26.3385 41.9753C23.8959 40.6703 21.573 39.1525 19.397 37.4396C17.7824 36.1751 16.2377 34.8238 14.7698 33.3917L13.6546 34.5342ZM46.3712 34.7954C46.0451 32.7583 45.3714 30.567 44.3685 28.2823L42.9061 28.9241C43.8544 31.0846 44.4893 33.1453 44.7939 35.0474C45.3654 38.6186 44.7377 41.4356 42.9789 43.195C42.1078 44.066 40.975 44.6632 39.6116 44.9706C38.5094 45.2185 37.2598 45.2776 35.8964 45.147C35.5604 45.1148 35.2137 45.0702 34.8658 45.0152L34.6165 46.5925C34.9957 46.6525 35.3752 46.7008 35.744 46.7364C36.2634 46.7862 36.7694 46.8111 37.2619 46.8111C38.1699 46.8166 39.0756 46.7217 39.9627 46.5281C41.6256 46.1531 43.0201 45.4115 44.108 44.3237C46.244 42.1877 47.0265 38.8932 46.3711 34.7954H46.3712ZM42.4998 24.5843L41.1124 25.3751C41.4907 26.0381 41.8501 26.7116 42.1903 27.3949L43.6207 26.685C43.2675 25.9741 42.8937 25.2735 42.4998 24.5843ZM38.793 19.0333L37.5244 20.0033C38.1217 20.7847 38.6977 21.5822 39.2518 22.3948L40.5718 21.4956C40.0011 20.659 39.408 19.8379 38.793 19.0333ZM34.8452 14.4178L33.6904 15.5204C34.3695 16.2321 35.0291 16.962 35.6685 17.7095L36.8822 16.6717C36.2237 15.9021 35.5444 15.1506 34.8452 14.4178ZM15.0564 6.11883L16.618 5.78501L16.1024 3.37286C17.568 3.89275 18.9938 4.51866 20.3685 5.24562C22.7795 6.51843 25.0743 7.99997 27.2268 9.67324C28.2415 10.4563 29.2638 11.306 30.2648 12.1985C31.0795 12.9263 31.8737 13.677 32.6463 14.4494L33.7754 13.3203C33.5308 13.0757 33.284 12.8332 33.0352 12.5929C32.4766 12.0531 31.9077 11.5242 31.3286 11.0065C30.2991 10.0893 29.2475 9.21501 28.2053 8.4108C27.1902 7.62146 26.1392 6.87378 25.061 6.166C25.6626 5.82623 26.2729 5.50214 26.8913 5.19404L26.1808 3.76385C25.4643 4.11934 24.7327 4.51097 24.0069 4.92699L24.5141 5.81211C23.408 5.10741 22.274 4.44734 21.115 3.83349C20.083 3.2887 19.0235 2.79769 17.9407 2.36244L19.3479 2.06196L19.0148 0.5L14.8619 1.38768C14.7593 1.40957 14.6621 1.45144 14.5757 1.5109C14.4894 1.57037 14.4156 1.64627 14.3585 1.73426C14.3015 1.82226 14.2624 1.92062 14.2434 2.02374C14.2244 2.12686 14.2259 2.23272 14.2478 2.33526L15.0564 6.11883ZM0.248342 34.9203C0.0461521 36.0725 -0.0331833 37.2429 0.0116688 38.4118C0.130645 41.0045 0.962359 43.0903 2.48434 44.6117C3.58215 45.7099 4.993 46.4551 6.6765 46.8268C6.67969 46.827 6.68305 46.828 6.68681 46.8286C7.56741 47.0114 8.46441 47.1034 9.36378 47.1034C9.75077 47.1034 10.1378 47.0866 10.5244 47.0526L10.3842 45.4612C9.25785 45.5611 8.12294 45.4953 7.01567 45.266C5.63609 44.9611 4.49143 44.3612 3.6135 43.4826C2.38224 42.2514 1.707 40.5204 1.60705 38.345C1.56717 37.2909 1.63908 36.2354 1.82158 35.1964L0.248342 34.9203ZM18.854 44.726C19.7544 44.3203 20.674 43.8599 21.5869 43.3595L20.8199 41.9594C19.9425 42.44 19.0602 42.8813 18.1972 43.2702L18.854 44.726ZM13.4701 46.5881C14.3257 46.388 15.1707 46.1447 16.0018 45.8591L15.4855 44.3475C14.7056 44.6156 13.9126 44.8442 13.1096 45.0324L13.4701 46.5881ZM29.3765 35.9304L30.4231 37.1366C30.5052 37.0657 30.5869 36.9945 30.6684 36.923C31.1358 36.5118 31.597 36.0936 32.0519 35.6687C32.2571 35.4765 32.461 35.283 32.6635 35.088L31.556 33.9374C31.3591 34.1273 31.1606 34.3155 30.9607 34.5021C30.5183 34.916 30.0694 35.3229 29.6142 35.7227C29.5352 35.7923 29.4561 35.8617 29.3765 35.9304Z" fill="white"/>
<path d="M24.7188 39.5472L25.6252 40.8624C26.2995 40.3974 26.9629 39.9167 27.6148 39.4207C27.7695 39.3032 27.9236 39.1848 28.077 39.0655L27.097 37.8044C26.3213 38.4081 25.5283 38.9893 24.7189 39.5472H24.7188ZM34.5436 2.59005C38.1145 2.01916 40.9318 2.64666 42.6911 4.40572C43.5615 5.27613 44.1591 6.40929 44.4667 7.77264C44.7144 8.87524 44.7741 10.1251 44.6429 11.4882C44.6111 11.8236 44.5669 12.17 44.5114 12.5186L46.0887 12.768C46.1486 12.3877 46.197 12.0082 46.2326 11.6406C46.3795 10.1092 46.3095 8.68998 46.0243 7.42186C45.6495 5.75899 44.9081 4.36382 43.8202 3.27601C41.6838 1.13995 38.3884 0.35725 34.2915 1.01314C32.2554 1.33888 30.0635 2.01292 27.7785 3.01551L28.4203 4.47816C30.5807 3.52987 32.6408 2.89461 34.5436 2.59013V2.59005ZM17.2051 11.7158L16.1669 10.5025C15.3977 11.1609 14.6463 11.8399 13.9134 12.5386L15.0163 13.6939C15.7279 13.0148 16.4578 12.3553 17.2051 11.7158ZM21.8914 8.13268L20.9915 6.81283C20.155 7.3836 19.334 7.97672 18.5294 8.59156L19.4995 9.86024C20.2808 9.26267 21.0784 8.68662 21.8913 8.13276L21.8914 8.13268ZM45.7026 14.1559C45.5814 13.7316 45.1392 13.4865 44.7153 13.6077L40.9957 14.6721L41.4349 16.2075L43.7981 15.5313C43.1944 17.4376 42.4155 19.2839 41.4711 21.0465C40.1662 23.4891 38.6484 25.812 36.9354 27.988C35.6708 29.6025 34.3194 31.1471 32.8873 32.6149L34.0301 33.7303C35.5023 32.2216 36.8914 30.6339 38.1913 28.9745C39.9627 26.724 41.5322 24.3217 42.8816 21.7954C43.6669 20.3199 44.3473 18.7909 44.9177 17.2197L45.3353 18.6784L46.8707 18.2392L45.7026 14.1559ZM1.66432 33.1546C1.72029 33.1546 1.7765 33.1487 1.83175 33.1366L5.61476 32.3282L5.28086 30.7662L2.86903 31.2822C3.38873 29.8165 4.01464 28.3907 4.74179 27.0161C6.01428 24.6049 7.49569 22.31 9.16901 20.1576C9.95179 19.1431 10.8017 18.1208 11.6943 17.1195C12.1977 16.5557 12.7122 16.002 13.2375 15.4585C13.4714 15.2163 13.7075 14.9761 13.9456 14.7379L12.8165 13.6089C12.0222 14.4028 11.2506 15.2189 10.5025 16.0564C9.58415 17.0855 8.71062 18.1374 7.90665 19.1793C6.17693 21.4046 4.64544 23.7771 3.32974 26.2696C2.78436 27.3013 2.29331 28.3609 1.85861 29.4439L1.55781 28.0359L-0.00415039 28.3694L0.883534 32.5225C0.921784 32.7012 1.02015 32.8615 1.16222 32.9765C1.3043 33.0916 1.48151 33.1544 1.66432 33.1546ZM16.5463 17.6105V30.2781C16.5463 30.954 16.9256 31.9056 18.8483 32.6012C20.0932 33.0516 21.7208 33.2999 23.4492 33.2999H23.5111C24.5096 33.2999 25.506 33.2088 26.4879 33.0278C28.9772 32.5503 30.4205 31.5481 30.4205 30.2781V17.6105C30.4205 16.9343 29.9979 15.9833 28.0749 15.287C26.8296 14.8367 25.1802 14.5883 23.4495 14.5883C21.7183 14.5883 20.0982 14.8367 18.8529 15.287C16.9302 15.983 16.5463 16.9342 16.5463 17.6105ZM26.1891 31.4583C25.2857 31.6257 24.3686 31.7077 23.4499 31.703C21.8986 31.703 20.4715 31.4884 19.3965 31.0998C18.3449 30.7191 18.1434 30.3374 18.1434 30.2781V28.0492C18.3705 28.1695 18.6061 28.2731 18.8483 28.359C20.0932 28.8098 21.7208 29.0577 23.4525 29.0577C25.1843 29.0577 26.8366 28.8098 28.0815 28.359C28.3545 28.2603 28.5241 28.1563 28.8236 28.0486V30.2777C28.8236 30.4276 28.1771 31.0769 26.1891 31.4583V31.4583ZM28.8237 26.0356C28.8237 26.0956 28.5834 26.477 27.5321 26.8577C26.4567 27.2469 25.001 27.4608 23.4496 27.4608C21.8986 27.4608 20.4715 27.2469 19.3965 26.8577C18.3449 26.477 18.1434 26.0953 18.1434 26.0357V23.8362C18.3704 23.9567 18.606 24.0604 18.8483 24.1464C20.0932 24.5971 21.7208 24.8451 23.4525 24.8451C25.1843 24.8451 26.8366 24.5971 28.0815 24.1463C28.3545 24.0477 28.5241 23.9436 28.8236 23.8362L28.8237 26.0356ZM27.5321 22.6447C26.4567 23.0338 25.001 23.2478 23.4496 23.2478C21.8986 23.2478 20.4715 23.0338 19.3965 22.6447C18.3449 22.2642 18.1434 21.8826 18.1434 21.8233V19.6232C18.3706 19.7434 18.6062 19.847 18.8483 19.9333C20.0936 20.384 21.7212 20.632 23.4525 20.632C25.1838 20.632 26.8363 20.3837 28.0815 19.9333C28.3545 19.8343 28.5241 19.7302 28.8236 19.6232V21.8233C28.8236 21.8826 28.5834 22.2642 27.5321 22.6447ZM19.3675 16.7888C20.4428 16.3993 21.8892 16.1853 23.4399 16.1853C24.9903 16.1853 26.4371 16.3993 27.5125 16.7888C28.5634 17.1694 28.7849 17.5508 28.7849 17.6105C28.7849 17.6695 28.5634 18.0509 27.5125 18.4316C26.437 18.821 24.9904 19.0351 23.4399 19.0351C21.8892 19.0351 20.4428 18.8205 19.3675 18.4316C18.3158 18.0509 18.0947 17.6695 18.0947 17.6105C18.0947 17.5508 18.3162 17.1694 19.3678 16.7888H19.3675Z" fill="white"/>
</g>
<defs>
<clipPath id="clip0_4665_478">
<rect width="50" height="50" fill="white" transform="translate(0 0.5)"/>
</clipPath>
</defs>
</svg>
