<svg width="353" height="390" viewBox="0 0 353 390" fill="none" xmlns="http://www.w3.org/2000/svg">
<g opacity="0.3">
<g opacity="0.3">
<circle cx="11.572" cy="101.131" r="4.13804" transform="rotate(-14.2821 11.572 101.131)" fill="white"/>
<circle cx="35.6325" cy="95.0054" r="4.13804" transform="rotate(-14.2821 35.6325 95.0054)" fill="white"/>
<circle cx="59.6931" cy="88.8809" r="4.13804" transform="rotate(-14.2821 59.6931 88.8809)" fill="white"/>
<circle cx="83.7546" cy="82.7574" r="4.13804" transform="rotate(-14.2821 83.7546 82.7574)" fill="white"/>
<circle cx="107.815" cy="76.6314" r="4.13804" transform="rotate(-14.2821 107.815 76.6314)" fill="white"/>
<circle cx="131.876" cy="70.5069" r="4.13804" transform="rotate(-14.2821 131.876 70.5069)" fill="white"/>
<circle cx="155.936" cy="64.3819" r="4.13804" transform="rotate(-14.2821 155.936 64.3819)" fill="white"/>
<circle cx="180" cy="58.2564" r="4.13804" transform="rotate(-14.2821 180 58.2564)" fill="white"/>
<circle cx="204.061" cy="52.1314" r="4.13804" transform="rotate(-14.2821 204.061 52.1314)" fill="white"/>
</g>
<g opacity="0.3">
<circle cx="17.0193" cy="122.518" r="4.13804" transform="rotate(-14.2821 17.0193 122.518)" fill="white"/>
<circle cx="41.0798" cy="116.393" r="4.13804" transform="rotate(-14.2821 41.0798 116.393)" fill="white"/>
<circle cx="65.1404" cy="110.269" r="4.13804" transform="rotate(-14.2821 65.1404 110.269)" fill="white"/>
<circle cx="89.2019" cy="104.143" r="4.13804" transform="rotate(-14.2821 89.2019 104.143)" fill="white"/>
<circle cx="113.262" cy="98.0181" r="4.13804" transform="rotate(-14.2821 113.262 98.0181)" fill="white"/>
<circle cx="137.323" cy="91.8941" r="4.13804" transform="rotate(-14.2821 137.323 91.8941)" fill="white"/>
<circle cx="161.384" cy="85.7686" r="4.13804" transform="rotate(-14.2821 161.384 85.7686)" fill="white"/>
<circle cx="185.445" cy="79.6426" r="4.13804" transform="rotate(-14.2821 185.445 79.6426)" fill="white"/>
<circle opacity="0.3" cx="209.506" cy="73.5181" r="4.13804" transform="rotate(-14.2821 209.506 73.5181)" fill="white"/>
</g>
<g opacity="0.3">
</g>
<g opacity="0.3">
<circle cx="-1.59793" cy="150.03" r="4.13804" transform="rotate(-14.2821 -1.59793 150.03)" fill="white"/>
<circle cx="22.4626" cy="143.906" r="4.13804" transform="rotate(-14.2821 22.4626 143.906)" fill="white"/>
<circle cx="46.5232" cy="137.78" r="4.13804" transform="rotate(-14.2821 46.5232 137.78)" fill="white"/>
<circle cx="70.5847" cy="131.655" r="4.13804" transform="rotate(-14.2821 70.5847 131.655)" fill="white"/>
<circle cx="94.6452" cy="125.53" r="4.13804" transform="rotate(-14.2821 94.6452 125.53)" fill="white"/>
<circle cx="118.706" cy="119.406" r="4.13804" transform="rotate(-14.2821 118.706 119.406)" fill="white"/>
<circle cx="142.766" cy="113.282" r="4.13804" transform="rotate(-14.2821 142.766 113.282)" fill="white"/>
<circle cx="166.828" cy="107.156" r="4.13804" transform="rotate(-14.2821 166.828 107.156)" fill="white"/>
<circle opacity="0.3" cx="190.889" cy="101.03" r="4.13804" transform="rotate(-14.2821 190.889 101.03)" fill="white"/>
<circle opacity="0.3" cx="214.95" cy="94.9048" r="4.13804" transform="rotate(-14.2821 214.95 94.9048)" fill="white"/>
</g>
<g opacity="0.3">
</g>
<g opacity="0.3">
<circle cx="3.84739" cy="171.417" r="4.13804" transform="rotate(-14.2821 3.84739 171.417)" fill="white"/>
<circle cx="27.9079" cy="165.293" r="4.13804" transform="rotate(-14.2821 27.9079 165.293)" fill="white"/>
<circle cx="51.9685" cy="159.167" r="4.13804" transform="rotate(-14.2821 51.9685 159.167)" fill="white"/>
<circle cx="76.03" cy="153.043" r="4.13804" transform="rotate(-14.2821 76.03 153.043)" fill="white"/>
<circle cx="100.091" cy="146.918" r="4.13804" transform="rotate(-14.2821 100.091 146.918)" fill="white"/>
<circle cx="124.151" cy="140.794" r="4.13804" transform="rotate(-14.2821 124.151 140.794)" fill="white"/>
<circle cx="148.212" cy="134.669" r="4.13804" transform="rotate(-14.2821 148.212 134.669)" fill="white"/>
<circle opacity="0.3" cx="172.272" cy="128.543" r="4.13804" transform="rotate(-14.2821 172.272 128.543)" fill="white"/>
<circle opacity="0.3" cx="196.334" cy="122.418" r="4.13804" transform="rotate(-14.2821 196.334 122.418)" fill="white"/>
<circle opacity="0.3" cx="220.395" cy="116.292" r="4.13804" transform="rotate(-14.2821 220.395 116.292)" fill="white"/>
</g>
<g opacity="0.3">
<circle cx="15.1931" cy="9.1148" r="4.13804" transform="rotate(-14.2821 15.1931 9.1148)" fill="white"/>
<circle cx="39.2536" cy="2.99077" r="4.13804" transform="rotate(-14.2821 39.2536 2.99077)" fill="white"/>
<circle cx="63.3161" cy="-3.13472" r="4.13804" transform="rotate(-14.2821 63.3161 -3.13472)" fill="white"/>
</g>
<g opacity="0.3">
<circle cx="9.29172" cy="192.802" r="4.13804" transform="rotate(-14.2821 9.29172 192.802)" fill="white"/>
<circle cx="33.3523" cy="186.679" r="4.13804" transform="rotate(-14.2821 33.3523 186.679)" fill="white"/>
<circle cx="57.4138" cy="180.553" r="4.13804" transform="rotate(-14.2821 57.4138 180.553)" fill="white"/>
<circle cx="81.4743" cy="174.428" r="4.13804" transform="rotate(-14.2821 81.4743 174.428)" fill="white"/>
<circle cx="105.535" cy="168.304" r="4.13804" transform="rotate(-14.2821 105.535 168.304)" fill="white"/>
<circle cx="129.595" cy="162.178" r="4.13804" transform="rotate(-14.2821 129.595 162.178)" fill="white"/>
<circle opacity="0.3" cx="153.657" cy="156.054" r="4.13804" transform="rotate(-14.2821 153.657 156.054)" fill="white"/>
<circle opacity="0.3" cx="177.717" cy="149.929" r="4.13804" transform="rotate(-14.2821 177.717 149.929)" fill="white"/>
<circle opacity="0.3" cx="201.778" cy="143.804" r="4.13804" transform="rotate(-14.2821 201.778 143.804)" fill="white"/>
<circle opacity="0.3" cx="225.839" cy="137.678" r="4.13804" transform="rotate(-14.2821 225.839 137.678)" fill="white"/>
</g>
<g opacity="0.3">
<circle cx="-3.42215" cy="36.6275" r="4.13804" transform="rotate(-14.2821 -3.42215 36.6275)" fill="white"/>
<circle cx="20.6374" cy="30.502" r="4.13804" transform="rotate(-14.2821 20.6374 30.502)" fill="white"/>
<circle cx="44.6989" cy="24.3775" r="4.13804" transform="rotate(-14.2821 44.6989 24.3775)" fill="white"/>
<circle cx="68.7605" cy="18.252" r="4.13804" transform="rotate(-14.2821 68.7605 18.252)" fill="white"/>
<circle cx="92.82" cy="12.1275" r="4.13804" transform="rotate(-14.2821 92.82 12.1275)" fill="white"/>
<circle cx="116.882" cy="6.00347" r="4.13804" transform="rotate(-14.2821 116.882 6.00347)" fill="white"/>
<circle cx="140.942" cy="-0.122998" r="4.13804" transform="rotate(-14.2821 140.942 -0.122998)" fill="white"/>
</g>
<g opacity="0.3">
<circle cx="14.7351" cy="214.194" r="4.13804" transform="rotate(-14.2821 14.7351 214.194)" fill="white"/>
<circle cx="38.7956" cy="208.069" r="4.13804" transform="rotate(-14.2821 38.7956 208.069)" fill="white"/>
<circle cx="62.8562" cy="201.943" r="4.13804" transform="rotate(-14.2821 62.8562 201.943)" fill="white"/>
<circle cx="86.9177" cy="195.819" r="4.13804" transform="rotate(-14.2821 86.9177 195.819)" fill="white"/>
<circle cx="110.978" cy="189.694" r="4.13804" transform="rotate(-14.2821 110.978 189.694)" fill="white"/>
<circle opacity="0.3" cx="135.039" cy="183.57" r="4.13804" transform="rotate(-14.2821 135.039 183.57)" fill="white"/>
<circle opacity="0.3" cx="159.1" cy="177.445" r="4.13804" transform="rotate(-14.2821 159.1 177.445)" fill="white"/>
<circle opacity="0.3" cx="183.16" cy="171.319" r="4.13804" transform="rotate(-14.2821 183.16 171.319)" fill="white"/>
<circle opacity="0.3" cx="207.222" cy="165.194" r="4.13804" transform="rotate(-14.2821 207.222 165.194)" fill="white"/>
<circle opacity="0.3" cx="231.282" cy="159.069" r="4.13804" transform="rotate(-14.2821 231.282 159.069)" fill="white"/>
</g>
<g opacity="0.3">
<circle cx="2.02219" cy="58.0142" r="4.13804" transform="rotate(-14.2821 2.02219 58.0142)" fill="white"/>
<circle cx="26.0827" cy="51.8882" r="4.13804" transform="rotate(-14.2821 26.0827 51.8882)" fill="white"/>
<circle cx="50.1433" cy="45.7637" r="4.13804" transform="rotate(-14.2821 50.1433 45.7637)" fill="white"/>
<circle cx="74.2038" cy="39.6392" r="4.13804" transform="rotate(-14.2821 74.2038 39.6392)" fill="white"/>
<circle cx="98.2644" cy="33.5142" r="4.13804" transform="rotate(-14.2821 98.2644 33.5142)" fill="white"/>
<circle cx="122.325" cy="27.3902" r="4.13804" transform="rotate(-14.2821 122.325 27.3902)" fill="white"/>
<circle cx="146.386" cy="21.2642" r="4.13804" transform="rotate(-14.2821 146.386 21.2642)" fill="white"/>
<circle cx="170.447" cy="15.1392" r="4.13804" transform="rotate(-14.2821 170.447 15.1392)" fill="white"/>
<circle cx="194.509" cy="9.01372" r="4.13804" transform="rotate(-14.2821 194.509 9.01372)" fill="white"/>
</g>
<g opacity="0.3">
<circle cx="-3.88113" cy="241.706" r="4.13804" transform="rotate(-14.2821 -3.88113 241.706)" fill="white"/>
<circle cx="20.1804" cy="235.579" r="4.13804" transform="rotate(-14.2821 20.1804 235.579)" fill="white"/>
<circle cx="44.2409" cy="229.454" r="4.13804" transform="rotate(-14.2821 44.2409 229.454)" fill="white"/>
<circle cx="68.3005" cy="223.33" r="4.13804" transform="rotate(-14.2821 68.3005 223.33)" fill="white"/>
<circle cx="92.362" cy="217.205" r="4.13804" transform="rotate(-14.2821 92.362 217.205)" fill="white"/>
<circle opacity="0.3" cx="116.423" cy="211.081" r="4.13804" transform="rotate(-14.2821 116.423 211.081)" fill="white"/>
<circle opacity="0.3" cx="140.483" cy="204.955" r="4.13804" transform="rotate(-14.2821 140.483 204.955)" fill="white"/>
<circle opacity="0.3" cx="164.545" cy="198.831" r="4.13804" transform="rotate(-14.2821 164.545 198.831)" fill="white"/>
<circle opacity="0.3" cx="188.605" cy="192.705" r="4.13804" transform="rotate(-14.2821 188.605 192.705)" fill="white"/>
<circle opacity="0.3" cx="212.667" cy="186.579" r="4.13804" transform="rotate(-14.2821 212.667 186.579)" fill="white"/>
<circle opacity="0.3" cx="236.727" cy="180.454" r="4.13804" transform="rotate(-14.2821 236.727 180.454)" fill="white"/>
</g>
<g opacity="0.3">
<circle cx="7.46555" cy="79.4034" r="4.13804" transform="rotate(-14.2821 7.46555 79.4034)" fill="white"/>
<circle cx="31.5261" cy="73.2779" r="4.13804" transform="rotate(-14.2821 31.5261 73.2779)" fill="white"/>
<circle cx="55.5866" cy="67.1543" r="4.13804" transform="rotate(-14.2821 55.5866 67.1543)" fill="white"/>
<circle cx="79.6472" cy="61.0298" r="4.13804" transform="rotate(-14.2821 79.6472 61.0298)" fill="white"/>
<circle cx="103.709" cy="54.9039" r="4.13804" transform="rotate(-14.2821 103.709 54.9039)" fill="white"/>
<circle cx="127.769" cy="48.7793" r="4.13804" transform="rotate(-14.2821 127.769 48.7793)" fill="white"/>
<circle cx="151.83" cy="42.6548" r="4.13804" transform="rotate(-14.2821 151.83 42.6548)" fill="white"/>
<circle cx="175.891" cy="36.5284" r="4.13804" transform="rotate(-14.2821 175.891 36.5284)" fill="white"/>
<circle cx="199.953" cy="30.4039" r="4.13804" transform="rotate(-14.2821 199.953 30.4039)" fill="white"/>
</g>
<g opacity="0.3">
<circle cx="1.56223" cy="263.093" r="4.13804" transform="rotate(-14.2821 1.56223 263.093)" fill="white"/>
<circle cx="25.6238" cy="256.968" r="4.13804" transform="rotate(-14.2821 25.6238 256.968)" fill="white"/>
<circle cx="49.6843" cy="250.843" r="4.13804" transform="rotate(-14.2821 49.6843 250.843)" fill="white"/>
<circle cx="73.7458" cy="244.717" r="4.13804" transform="rotate(-14.2821 73.7458 244.717)" fill="white"/>
<circle opacity="0.3" cx="97.8064" cy="238.593" r="4.13804" transform="rotate(-14.2821 97.8064 238.593)" fill="white"/>
<circle opacity="0.3" cx="121.867" cy="232.469" r="4.13804" transform="rotate(-14.2821 121.867 232.469)" fill="white"/>
<circle opacity="0.3" cx="145.928" cy="226.343" r="4.13804" transform="rotate(-14.2821 145.928 226.343)" fill="white"/>
<circle opacity="0.3" cx="169.989" cy="220.219" r="4.13804" transform="rotate(-14.2821 169.989 220.219)" fill="white"/>
<circle opacity="0.3" cx="194.049" cy="214.093" r="4.13804" transform="rotate(-14.2821 194.049 214.093)" fill="white"/>
<circle opacity="0.3" cx="218.111" cy="207.968" r="4.13804" transform="rotate(-14.2821 218.111 207.968)" fill="white"/>
<circle opacity="0.3" cx="242.172" cy="201.842" r="4.13804" transform="rotate(-14.2821 242.172 201.842)" fill="white"/>
</g>
</g>
</svg>
