<svg width="30" height="30" viewBox="0 0 30 30" fill="none" xmlns="http://www.w3.org/2000/svg">
<rect y="-0.000488281" width="30" height="30" rx="15" fill="white"/>
<g clip-path="url(#clip0_4997_2412)">
<path d="M11.7276 12.8176C12.3301 12.8176 12.8186 12.3292 12.8186 11.7267C12.8186 11.1242 12.3301 10.6357 11.7276 10.6357C11.1251 10.6357 10.6367 11.1242 10.6367 11.7267C10.6367 12.3292 11.1251 12.8176 11.7276 12.8176Z" fill="#121212"/>
<path d="M10.6367 13.3633H12.8185V19.3633H10.6367V13.3633Z" fill="#121212"/>
<path d="M15 2.99951C8.37258 2.99951 3 8.37209 3 14.9995C3 21.6269 8.37258 26.9995 15 26.9995C21.6274 26.9995 27 21.6269 27 14.9995C27 8.37209 21.6274 2.99951 15 2.99951ZM15 25.9086C8.97506 25.9086 4.09092 21.0244 4.09092 14.9995C4.09092 8.97457 8.97506 4.09043 15 4.09043C21.0249 4.09043 25.9091 8.97457 25.9091 14.9995C25.9091 21.0244 21.0249 25.9086 15 25.9086Z" fill="#121212"/>
<path d="M17.9227 13.3633C16.2864 13.3633 16.09 14.3342 16.09 14.3342V13.3633H13.9082V19.3633H16.09V16.0906C16.09 16.0906 16.09 14.9996 17.0173 14.9996C17.5627 14.9996 17.7264 15.4851 17.7264 16.0906V19.3633H19.9082V16.0906C19.9082 14.3833 19.1664 13.3633 17.9227 13.3633Z" fill="#121212"/>
</g>
<defs>
<clipPath id="clip0_4997_2412">
<rect width="24" height="24" fill="white" transform="translate(3 2.99951)"/>
</clipPath>
</defs>
</svg>
