<svg width="95" height="75" viewBox="0 0 95 75" fill="none" xmlns="http://www.w3.org/2000/svg">
<mask id="mask0_4764_373" style="mask-type:luminance" maskUnits="userSpaceOnUse" x="0" y="61" width="7" height="8">
<path d="M6.3161 68.4156H0V61.6136H6.3161V68.4156Z" fill="white"/>
</mask>
<g mask="url(#mask0_4764_373)">
<path d="M2.50916 61.6136L2.57649 61.8156L5.05822 68.3471H6.07793V68.2701L3.47108 61.6136H2.50916ZM2.50916 61.6136L-0.0976562 68.2701V68.3471H0.921985L3.40374 61.8156L3.47108 61.6136H2.50916Z" fill="white"/>
</g>
<mask id="mask1_4764_373" style="mask-type:luminance" maskUnits="userSpaceOnUse" x="7" y="61" width="2" height="8">
<path d="M8.45364 61.6136H7.38477V68.4156H8.45364V61.6136Z" fill="white"/>
</mask>
<g mask="url(#mask1_4764_373)">
<path d="M7.43555 68.4156V61.6821H8.39754V68.4156H7.43555Z" fill="white"/>
</g>
<path d="M35.0619 61.7108L35.1292 61.9128L37.611 68.4443H38.6307V68.3673L36.0239 61.7108H35.0619ZM35.0619 61.7108L32.4551 68.3673V68.4443H33.4747L35.9565 61.9128L36.0239 61.7108H35.0619Z" fill="white"/>
<path d="M18.9482 68.4443V61.7108H19.9101V68.4443H18.9482Z" fill="white"/>
<mask id="mask2_4764_373" style="mask-type:luminance" maskUnits="userSpaceOnUse" x="11" y="61" width="7" height="8">
<path d="M17.8796 61.6136H11.5635V68.4156H17.8796V61.6136Z" fill="white"/>
</mask>
<g mask="url(#mask2_4764_373)">
<path d="M14.2367 68.4156L14.304 68.2136L16.7858 61.6821H17.8054V61.7591L15.1986 68.4156H14.2367ZM14.2367 68.4156L11.6299 61.7591V61.6821H12.6495L15.1312 68.2136L15.1986 68.4156H14.2367Z" fill="white"/>
</g>
<mask id="mask3_4764_373" style="mask-type:luminance" maskUnits="userSpaceOnUse" x="20" y="61" width="7" height="8">
<path d="M26.2355 61.5164H20.9883V68.6099H26.2355V61.5164Z" fill="white"/>
</mask>
<g mask="url(#mask3_4764_373)">
<path d="M23.7465 68.5502C23.2847 68.5502 22.8679 68.4669 22.4959 68.3001C22.124 68.1334 21.813 67.8993 21.5629 67.598C21.3192 67.2965 21.1556 66.9438 21.0723 66.5398L21.9477 66.3186L22.0535 66.3378C22.1369 66.5879 22.2587 66.8123 22.419 67.0111C22.5857 67.2035 22.7845 67.3575 23.0154 67.4729C23.2463 67.5819 23.4964 67.6364 23.7656 67.6364C24.0414 67.6364 24.2819 67.5915 24.4871 67.5018C24.6988 67.412 24.8655 67.2901 24.9874 67.1362C25.1092 66.9759 25.1701 66.7931 25.1701 66.5879C25.1701 66.3186 25.0932 66.1102 24.9393 65.9627C24.7854 65.8152 24.5609 65.7029 24.2659 65.626L23.0154 65.2797C22.4638 65.1322 22.0439 64.895 21.7553 64.5679C21.4667 64.2344 21.3224 63.8496 21.3224 63.4136C21.3224 63.048 21.4154 62.7274 21.6014 62.4516C21.7938 62.1694 22.0599 61.9483 22.3997 61.7879C22.7396 61.6276 23.1308 61.5474 23.5733 61.5474C24.0029 61.5474 24.3877 61.6276 24.7276 61.7879C25.0739 61.9418 25.3592 62.1598 25.5837 62.442C25.8146 62.7242 25.9653 63.0609 26.0358 63.4521L25.1893 63.6348L25.0836 63.6155C25.0002 63.2565 24.8238 62.9743 24.5545 62.7691C24.2851 62.5638 23.9548 62.4612 23.5637 62.4612C23.1918 62.4612 22.8935 62.551 22.6691 62.7306C22.4446 62.9037 22.3325 63.1314 22.3325 63.4136C22.3325 63.6508 22.4125 63.8464 22.5729 64.0003C22.7396 64.1542 22.9769 64.2761 23.2847 64.3659L24.5352 64.7026C25.0675 64.8437 25.4747 65.0712 25.7569 65.3855C26.0455 65.6997 26.1898 66.0845 26.1898 66.5398C26.1898 66.9438 26.0871 67.2965 25.8819 67.598C25.6767 67.8993 25.3913 68.1334 25.0258 68.3001C24.6603 68.4669 24.2338 68.5502 23.7465 68.5502Z" fill="white"/>
</g>
<mask id="mask4_4764_373" style="mask-type:luminance" maskUnits="userSpaceOnUse" x="27" y="61" width="6" height="8">
<path d="M32.4547 61.6136H27.3047V68.4156H32.4547V61.6136Z" fill="white"/>
</mask>
<g mask="url(#mask4_4764_373)">
<path d="M29.381 68.4156V61.6821H30.3429V68.4156H29.381ZM27.332 62.6055V61.6821H32.3918V62.6055H27.332Z" fill="white"/>
</g>
<mask id="mask5_4764_373" style="mask-type:luminance" maskUnits="userSpaceOnUse" x="41" y="61" width="7" height="8">
<path d="M47.0304 61.5164H41.7832V68.6099H47.0304V61.5164Z" fill="white"/>
</mask>
<g mask="url(#mask5_4764_373)">
<path d="M44.5404 68.5502C44.0787 68.5502 43.6618 68.4669 43.2899 68.3001C42.918 68.1334 42.6069 67.8993 42.3568 67.598C42.1131 67.2965 41.9496 66.9438 41.8662 66.5398L42.7416 66.3186L42.8474 66.3378C42.9308 66.5879 43.0527 66.8123 43.2129 67.0111C43.3796 67.2035 43.5785 67.3575 43.8093 67.4729C44.0402 67.5819 44.2903 67.6364 44.5596 67.6364C44.8354 67.6364 45.0759 67.5915 45.2811 67.5018C45.4927 67.412 45.6595 67.2901 45.7813 67.1362C45.9032 66.9759 45.9641 66.7931 45.9641 66.5879C45.9641 66.3186 45.8871 66.1102 45.7332 65.9627C45.5793 65.8152 45.3548 65.7029 45.0598 65.626L43.8093 65.2797C43.2578 65.1322 42.8378 64.895 42.5492 64.5679C42.2606 64.2344 42.1163 63.8496 42.1163 63.4136C42.1163 63.048 42.2093 62.7274 42.3953 62.4516C42.5877 62.1694 42.8539 61.9483 43.1937 61.7879C43.5336 61.6276 43.9248 61.5474 44.3673 61.5474C44.7969 61.5474 45.1817 61.6276 45.5216 61.7879C45.8679 61.9418 46.1532 62.1598 46.3777 62.442C46.6085 62.7242 46.7592 63.0609 46.8298 63.4521L45.9832 63.6348L45.8775 63.6155C45.7941 63.2565 45.6178 62.9743 45.3484 62.7691C45.0791 62.5638 44.7488 62.4612 44.3577 62.4612C43.9857 62.4612 43.6875 62.551 43.463 62.7306C43.2386 62.9037 43.1264 63.1314 43.1264 63.4136C43.1264 63.6508 43.2065 63.8464 43.3668 64.0003C43.5336 64.1542 43.7709 64.2761 44.0787 64.3659L45.3292 64.7026C45.8615 64.8437 46.2686 65.0712 46.5508 65.3855C46.8394 65.6997 46.9837 66.0845 46.9837 66.5398C46.9837 66.9438 46.8811 67.2965 46.6759 67.598C46.4706 67.8993 46.1853 68.1334 45.8198 68.3001C45.4542 68.4669 45.0278 68.5502 44.5404 68.5502Z" fill="#00A8A8"/>
</g>
<mask id="mask6_4764_373" style="mask-type:luminance" maskUnits="userSpaceOnUse" x="48" y="61" width="7" height="8">
<path d="M54.61 61.5164H48.0996V68.6099H54.61V61.5164Z" fill="white"/>
</mask>
<g mask="url(#mask6_4764_373)">
<path d="M51.3661 68.5502C50.7441 68.5502 50.1893 68.4059 49.702 68.1173C49.2146 67.8223 48.833 67.412 48.5573 66.8861C48.288 66.3602 48.1533 65.7478 48.1533 65.0488C48.1533 64.3498 48.288 63.7374 48.5573 63.2116C48.833 62.6857 49.2146 62.2784 49.702 61.9899C50.1893 61.6949 50.7441 61.5474 51.3661 61.5474C51.9946 61.5474 52.5493 61.6949 53.0302 61.9899C53.5176 62.2784 53.896 62.6857 54.1653 63.2116C54.441 63.7374 54.5789 64.3498 54.5789 65.0488C54.5789 65.7478 54.441 66.3602 54.1653 66.8861C53.896 67.412 53.5176 67.8223 53.0302 68.1173C52.5493 68.4059 51.9946 68.5502 51.3661 68.5502ZM51.3661 67.6268C51.7958 67.6268 52.1806 67.521 52.5205 67.3094C52.8603 67.0977 53.1264 66.7995 53.3188 66.4147C53.5112 66.0236 53.6074 65.5683 53.6074 65.0488C53.6074 64.523 53.5112 64.0676 53.3188 63.6828C53.1264 63.2982 52.8603 62.9999 52.5205 62.7883C52.1806 62.5767 51.7958 62.4708 51.3661 62.4708C50.9365 62.4708 50.5517 62.5767 50.2118 62.7883C49.8783 62.9999 49.6122 63.2982 49.4134 63.6828C49.221 64.0676 49.1248 64.523 49.1248 65.0488C49.1248 65.5683 49.221 66.0236 49.4134 66.4147C49.6122 66.7995 49.8783 67.0977 50.2118 67.3094C50.5517 67.521 50.9365 67.6268 51.3661 67.6268Z" fill="#00A8A8"/>
</g>
<mask id="mask7_4764_373" style="mask-type:luminance" maskUnits="userSpaceOnUse" x="55" y="61" width="6" height="8">
<path d="M60.0514 61.7108H55.6787V68.5128H60.0514V61.7108Z" fill="white"/>
</mask>
<g mask="url(#mask7_4764_373)">
<path d="M55.7295 68.5128V61.7793H56.6915V68.5128H55.7295ZM56.2201 68.5128V67.5894H60.0101V68.5128H56.2201Z" fill="#00A8A8"/>
</g>
<mask id="mask8_4764_373" style="mask-type:luminance" maskUnits="userSpaceOnUse" x="61" y="61" width="6" height="8">
<path d="M66.2702 61.6136H61.1201V68.6099H66.2702V61.6136Z" fill="white"/>
</mask>
<g mask="url(#mask8_4764_373)">
<path d="M63.6921 68.5502C63.1727 68.5502 62.7238 68.4476 62.3454 68.2424C61.9671 68.0308 61.6753 67.7327 61.4701 67.3479C61.2713 66.9567 61.1719 66.4917 61.1719 65.9531V61.6821H62.1339V65.9723C62.1339 66.5045 62.2652 66.915 62.5282 67.2036C62.7975 67.4857 63.1855 67.6268 63.6921 67.6268C64.1987 67.6268 64.5835 67.4857 64.8465 67.2036C65.1157 66.915 65.2504 66.5045 65.2504 65.9723V61.6821H66.222V65.9531C66.222 66.4917 66.1194 66.9567 65.9142 67.3479C65.709 67.7327 65.4172 68.0308 65.0388 68.2424C64.6605 68.4476 64.2116 68.5502 63.6921 68.5502Z" fill="#00A8A8"/>
</g>
<mask id="mask9_4764_373" style="mask-type:luminance" maskUnits="userSpaceOnUse" x="67" y="61" width="6" height="8">
<path d="M72.4899 61.7108H67.3398V68.5128H72.4899V61.7108Z" fill="white"/>
</mask>
<g mask="url(#mask9_4764_373)">
<path d="M69.4152 68.5128V61.7793H70.377V68.5128H69.4152ZM67.3662 62.7027V61.7793H72.426V62.7027H67.3662Z" fill="#00A8A8"/>
</g>
<mask id="mask10_4764_373" style="mask-type:luminance" maskUnits="userSpaceOnUse" x="73" y="61" width="2" height="8">
<path d="M74.6275 61.7108H73.5586V68.5128H74.6275V61.7108Z" fill="white"/>
</mask>
<g mask="url(#mask10_4764_373)">
<path d="M73.6094 68.5128V61.7793H74.5714V68.5128H73.6094Z" fill="#00A8A8"/>
</g>
<mask id="mask11_4764_373" style="mask-type:luminance" maskUnits="userSpaceOnUse" x="75" y="61" width="8" height="8">
<path d="M82.2067 61.5164H75.6963V68.6099H82.2067V61.5164Z" fill="white"/>
</mask>
<g mask="url(#mask11_4764_373)">
<path d="M78.9628 68.5502C78.3408 68.5502 77.786 68.4059 77.2987 68.1173C76.8113 67.8223 76.4297 67.412 76.1539 66.8861C75.8847 66.3602 75.75 65.7478 75.75 65.0488C75.75 64.3498 75.8847 63.7374 76.1539 63.2116C76.4297 62.6857 76.8113 62.2784 77.2987 61.9899C77.786 61.6949 78.3408 61.5474 78.9628 61.5474C79.5913 61.5474 80.146 61.6949 80.6269 61.9899C81.1143 62.2784 81.4927 62.6857 81.762 63.2116C82.0377 63.7374 82.1756 64.3498 82.1756 65.0488C82.1756 65.7478 82.0377 66.3602 81.762 66.8861C81.4927 67.412 81.1143 67.8223 80.6269 68.1173C80.146 68.4059 79.5913 68.5502 78.9628 68.5502ZM78.9628 67.6268C79.3924 67.6268 79.7772 67.521 80.1171 67.3094C80.4569 67.0977 80.7231 66.7995 80.9155 66.4147C81.1079 66.0236 81.2041 65.5683 81.2041 65.0488C81.2041 64.523 81.1079 64.0676 80.9155 63.6828C80.7231 63.2982 80.4569 62.9999 80.1171 62.7883C79.7772 62.5767 79.3924 62.4708 78.9628 62.4708C78.5332 62.4708 78.1484 62.5767 77.8085 62.7883C77.475 62.9999 77.2089 63.2982 77.0101 63.6828C76.8177 64.0676 76.7215 64.523 76.7215 65.0488C76.7215 65.5683 76.8177 66.0236 77.0101 66.4147C77.2089 66.7995 77.475 67.0977 77.8085 67.3094C78.1484 67.521 78.5332 67.6268 78.9628 67.6268Z" fill="#00A8A8"/>
</g>
<mask id="mask12_4764_373" style="mask-type:luminance" maskUnits="userSpaceOnUse" x="83" y="61" width="6" height="8">
<path d="M88.717 61.7108H83.2754V68.5128H88.717V61.7108Z" fill="white"/>
</mask>
<g mask="url(#mask12_4764_373)">
<path d="M87.7318 68.5128L83.3262 62.0391V61.7793H84.2882L88.7034 68.253V68.5128H87.7318ZM83.3262 68.5128V61.7793H84.2882V68.5128H83.3262ZM87.7318 68.5128V61.7793H88.7034V68.5128H87.7318Z" fill="#00A8A8"/>
</g>
<path d="M92.557 68.5503C92.0954 68.5503 91.6785 68.4669 91.3065 68.3001C90.9345 68.1334 90.6234 67.8993 90.3734 67.598C90.1297 67.2966 89.9662 66.9438 89.8828 66.5398L90.7581 66.3186L90.8639 66.3379C90.9473 66.5879 91.0692 66.8124 91.2295 67.0112C91.3962 67.2036 91.595 67.3575 91.8262 67.4729C92.0565 67.582 92.3072 67.6365 92.5764 67.6365C92.8523 67.6365 93.0924 67.5916 93.2974 67.5018C93.5092 67.412 93.6764 67.2901 93.7978 67.1362C93.9193 66.9759 93.9805 66.7931 93.9805 66.5879C93.9805 66.3186 93.9037 66.1102 93.7502 65.9627C93.5957 65.8152 93.3712 65.703 93.0768 65.626L91.8262 65.2797C91.2744 65.1322 90.8543 64.895 90.5658 64.5679C90.2772 64.2344 90.1329 63.8496 90.1329 63.4136C90.1329 63.0481 90.2259 62.7274 90.4119 62.4516C90.6042 62.1694 90.8704 61.9483 91.2103 61.788C91.5503 61.6276 91.9409 61.5475 92.384 61.5475C92.8135 61.5475 93.1983 61.6276 93.5384 61.788C93.8843 61.9419 94.17 62.1598 94.3945 62.442C94.6247 62.7242 94.7754 63.0609 94.8463 63.4521L93.9999 63.6348L93.894 63.6155C93.8105 63.2565 93.6346 62.9743 93.3654 62.7691C93.0953 62.5639 92.7649 62.4613 92.3743 62.4613C92.0021 62.4613 91.7038 62.551 91.4793 62.7306C91.2552 62.9038 91.1429 63.1314 91.1429 63.4136C91.1429 63.6508 91.2231 63.8464 91.3834 64.0003C91.5503 64.1543 91.7874 64.2761 92.0954 64.3659L93.346 64.7026C93.8785 64.8437 94.2856 65.0713 94.5674 65.3855C94.856 65.6998 94.9998 66.0846 94.9998 66.5398C94.9998 66.9438 94.8978 67.2966 94.6928 67.598C94.4868 67.8993 94.202 68.1334 93.8367 68.3001C93.4703 68.4669 93.0447 68.5503 92.557 68.5503Z" fill="#00A8A8"/>
<path d="M12.4249 72.9317H12.0555C12.0247 72.4699 11.8014 72.4045 11.3628 72.4045C11.0357 72.4045 10.7586 72.4353 10.7586 72.8509C10.7586 73.0895 10.8818 73.1472 11.0934 73.2011L11.8438 73.3858C12.2902 73.4935 12.498 73.709 12.498 74.1284C12.498 74.7715 12.0208 74.9556 11.4205 74.9556C10.7779 74.9556 10.3084 74.7438 10.2969 74.0053H10.6663C10.6855 74.5328 10.9549 74.6245 11.4513 74.6245C11.8669 74.6245 12.1285 74.5631 12.1285 74.1323C12.1285 73.9092 12.0632 73.8129 11.6629 73.7167L10.978 73.5513C10.5893 73.455 10.3892 73.2703 10.3892 72.8624C10.3892 72.4006 10.6471 72.0735 11.3859 72.0735C12.2479 72.0735 12.4134 72.5161 12.4249 72.9317ZM13.333 74.8942H12.9636V72.1352H13.5216L14.2951 73.6667L15.0724 72.1352H15.6034V74.8942H15.234V72.5815L14.4605 74.0823H14.1065L13.333 72.57V74.8942ZM16.9196 73.7552H17.643C17.4967 73.3357 17.3351 72.924 17.162 72.5045C16.8195 73.2704 16.527 74.0631 16.3038 74.8942H15.919C16.2076 73.9707 16.554 73.051 16.9657 72.1352H17.3775C17.7853 73.0548 18.1317 73.9745 18.4203 74.8942H18.0124C17.9316 74.6245 17.8469 74.3517 17.7546 74.0785H16.8195L16.9196 73.7552ZM19.1399 72.4584V74.8942H18.7704V72.1352H19.8556C20.4598 72.1352 20.964 72.2005 20.964 72.8932C20.964 73.455 20.7061 73.6359 20.2867 73.6859L21.1294 74.8942H20.6714L19.8518 73.709H19.4092V73.3858H19.9904C20.4059 73.3858 20.583 73.3203 20.583 72.8971C20.583 72.5045 20.3674 72.4584 19.9981 72.4584H19.1399ZM22.5153 74.8942H22.1458V72.7354H22.5153V74.8942ZM21.2185 72.4661V72.1352H23.4427V72.4661H21.2185ZM26.8893 72.9317H26.5198C26.4891 72.4699 26.2659 72.4045 25.8272 72.4045C25.5001 72.4045 25.223 72.4353 25.223 72.8509C25.223 73.0895 25.3462 73.1472 25.5578 73.2011L26.3083 73.3858C26.7546 73.4935 26.9624 73.709 26.9624 74.1284C26.9624 74.7715 26.4852 74.9556 25.8849 74.9556C25.2423 74.9556 24.7728 74.7438 24.7612 74.0053H25.1307C25.1499 74.5328 25.4193 74.6245 25.9157 74.6245C26.3313 74.6245 26.593 74.5631 26.593 74.1323C26.593 73.9092 26.5275 73.8129 26.1274 73.7167L25.4424 73.5513C25.0537 73.455 24.8537 73.2703 24.8537 72.8624C24.8537 72.4006 25.1114 72.0735 25.8502 72.0735C26.7123 72.0735 26.8777 72.5161 26.8893 72.9317ZM29.5983 73.5166C29.5983 72.7354 29.3252 72.4006 28.644 72.4006C27.9552 72.4006 27.6897 72.7431 27.6897 73.5128C27.6897 74.2747 27.9475 74.6288 28.644 74.6288C29.3367 74.6288 29.5983 74.2824 29.5983 73.5166ZM29.9794 73.5128C29.9794 74.3093 29.6831 74.96 28.644 74.96C27.5858 74.96 27.3087 74.2824 27.3087 73.5089C27.3087 72.7162 27.6012 72.0697 28.6402 72.0697C29.6985 72.0697 29.9794 72.7393 29.9794 73.5128ZM32.1894 74.8942H30.4308V72.1352H30.8002V74.5631H32.1894V74.8942ZM34.2314 73.8283V72.1352H34.6007V73.7398C34.6007 74.5129 34.4353 74.9556 33.4925 74.9556C32.6267 74.9556 32.4304 74.583 32.4304 73.7667V72.1352H32.7999V73.7475C32.7999 74.3286 32.8537 74.6245 33.5271 74.6245C33.985 74.6245 34.2314 74.4905 34.2314 73.8283ZM36.2619 74.8942H35.8925V72.7354H36.2619V74.8942ZM34.9651 72.4661V72.1352H37.1893V72.4661H34.9651ZM37.9756 74.8942H37.6062V72.1352H37.9756V74.8942ZM40.7783 73.5166C40.7783 72.7354 40.5051 72.4006 39.824 72.4006C39.1351 72.4006 38.8696 72.7431 38.8696 73.5128C38.8696 74.2747 39.1274 74.6288 39.824 74.6288C40.5167 74.6288 40.7783 74.2824 40.7783 73.5166ZM41.1593 73.5128C41.1593 74.3093 40.863 74.96 39.824 74.96C38.7658 74.96 38.4886 74.2824 38.4886 73.5089C38.4886 72.7162 38.7811 72.0697 39.8201 72.0697C40.8784 72.0697 41.1593 72.7393 41.1593 73.5128ZM41.9879 74.8942H41.6184V72.1352H42.0456L43.431 74.3247V72.1352H43.8003V74.8942H43.3847L41.9879 72.7085V74.8942ZM46.4082 72.9317H46.0387C46.008 72.4699 45.7848 72.4045 45.3461 72.4045C45.019 72.4045 44.7419 72.4353 44.7419 72.8509C44.7419 73.0895 44.8651 73.1472 45.0767 73.2011L45.8271 73.3858C46.2735 73.4935 46.4813 73.709 46.4813 74.1284C46.4813 74.7715 46.0041 74.9556 45.4038 74.9556C44.7611 74.9556 44.2917 74.7438 44.2801 74.0053H44.6496C44.6688 74.5328 44.9381 74.6245 45.4346 74.6245C45.8502 74.6245 46.1119 74.5631 46.1119 74.1323C46.1119 73.9092 46.0464 73.8129 45.6462 73.7167L44.9612 73.5513C44.5726 73.455 44.3725 73.2703 44.3725 72.8624C44.3725 72.4006 44.6303 72.0735 45.3692 72.0735C46.2311 72.0735 46.3966 72.5161 46.4082 72.9317ZM48.8645 74.0246H47.8871V73.6821H48.8645V74.0246ZM52.3984 72.9317H52.0289C51.9982 72.4699 51.775 72.4045 51.3363 72.4045C51.0092 72.4045 50.7321 72.4353 50.7321 72.8509C50.7321 73.0895 50.8553 73.1472 51.0669 73.2011L51.8173 73.3858C52.2637 73.4935 52.4715 73.709 52.4715 74.1284C52.4715 74.7715 51.9943 74.9556 51.394 74.9556C50.7513 74.9556 50.2819 74.7438 50.2703 74.0053H50.6398C50.659 74.5328 50.9283 74.6245 51.4248 74.6245C51.8404 74.6245 52.1021 74.5631 52.1021 74.1323C52.1021 73.9092 52.0366 73.8129 51.6364 73.7167L50.9514 73.5513C50.5628 73.455 50.3627 73.2703 50.3627 72.8624C50.3627 72.4006 50.6205 72.0735 51.3594 72.0735C52.2213 72.0735 52.3868 72.5161 52.3984 72.9317ZM53.3065 74.8942H52.9371V72.1352H53.495L54.2686 73.6667L55.0459 72.1352H55.5769V74.8942H55.2075V72.5815L54.434 74.0823H54.08L53.3065 72.57V74.8942ZM56.893 73.7552H57.6165C57.4703 73.3357 57.3087 72.924 57.1355 72.5045C56.793 73.2704 56.5005 74.0631 56.2773 74.8942H55.8924C56.1811 73.9707 56.5274 73.051 56.9392 72.1352H57.3509C57.7589 73.0548 58.1052 73.9745 58.3938 74.8942H57.9858C57.9051 74.6245 57.8204 74.3517 57.7281 74.0785H56.793L56.893 73.7552ZM59.1133 72.4584V74.8942H58.744V72.1352H59.8291C60.4333 72.1352 60.9374 72.2005 60.9374 72.8932C60.9374 73.455 60.6796 73.6359 60.2601 73.6859L61.1029 74.8942H60.6449L59.8253 73.709H59.3828V73.3858H59.9638C60.3795 73.3858 60.5564 73.3203 60.5564 72.8971C60.5564 72.5045 60.3409 72.4584 59.9715 72.4584H59.1133ZM62.4888 74.8942H62.1194V72.7354H62.4888V74.8942ZM61.192 72.4661V72.1352H63.4162V72.4661H61.192ZM64.441 73.6359V73.3126H65.6879V73.6359H64.441ZM64.1717 72.4584V74.5709H65.8457V74.8942H63.8022V72.1352H65.8071V72.4584H64.1717ZM66.7345 72.4584V74.8942H66.3651V72.1352H67.4503C68.0544 72.1352 68.5586 72.2005 68.5586 72.8932C68.5586 73.455 68.3007 73.6359 67.8813 73.6859L68.724 74.8942H68.2661L67.4464 73.709H67.0039V73.3858H67.585C68.0005 73.3858 68.1776 73.3203 68.1776 72.8971C68.1776 72.5045 67.9621 72.4584 67.5927 72.4584H66.7345ZM70.5865 74.8942H70.2171V72.1352H72.1143V72.4584H70.5865V74.8942ZM71.9218 73.6359H70.8559V73.3126H71.9218V73.6359ZM74.3551 73.8283V72.1352H74.7246V73.7398C74.7246 74.5129 74.5591 74.9556 73.6163 74.9556C72.7505 74.9556 72.5542 74.583 72.5542 73.7667V72.1352H72.9236V73.7475C72.9236 74.3286 72.9775 74.6245 73.6509 74.6245C74.1089 74.6245 74.3551 74.4905 74.3551 73.8283ZM76.3857 74.8942H76.0163V72.7354H76.3857V74.8942ZM75.0889 72.4661V72.1352H77.3131V72.4661H75.0889ZM79.4848 73.8283V72.1352H79.8542V73.7398C79.8542 74.5129 79.6887 74.9556 78.7459 74.9556C77.8801 74.9556 77.6838 74.583 77.6838 73.7667V72.1352H78.0533V73.7475C78.0533 74.3286 78.1072 74.6245 78.7805 74.6245C79.2385 74.6245 79.4848 74.4905 79.4848 73.8283ZM80.8419 72.4584V74.8942H80.4725V72.1352H81.5577C82.1618 72.1352 82.6659 72.2005 82.6659 72.8932C82.6659 73.455 82.4081 73.6359 81.9886 73.6859L82.8314 74.8942H82.3735L81.5538 73.709H81.1113V73.3858H81.6923C82.108 73.3858 82.285 73.3203 82.285 72.8971C82.285 72.5045 82.0695 72.4584 81.7 72.4584H80.8419ZM83.8923 73.6359V73.3126H85.1391V73.6359H83.8923ZM83.6229 72.4584V74.5709H85.2969V74.8942H83.2535V72.1352H85.2584V72.4584H83.6229Z" fill="white"/>
<path d="M5.01362 73.4179C5.02187 73.4249 5.14326 73.4696 5.28232 73.5179C5.42138 73.5673 5.58874 73.6339 5.65355 73.666C5.88926 73.7843 6.11671 73.9818 6.26521 74.1999C6.36538 74.3457 6.4078 74.4349 6.51741 74.7308C6.60933 74.978 6.62937 75.0126 6.66944 74.9879C6.6824 74.9797 6.72719 74.875 6.7814 74.7308C6.891 74.4349 6.93343 74.3457 7.0336 74.1999C7.18209 73.9818 7.40955 73.7843 7.64526 73.666C7.71008 73.6339 7.87743 73.5673 8.01649 73.519C8.15555 73.4696 8.27695 73.4226 8.28637 73.4146C8.2958 73.4065 8.29934 73.3893 8.29462 73.372C8.28873 73.348 8.25927 73.3342 8.04949 73.2618C7.9175 73.2159 7.76075 73.155 7.69947 73.1275C7.36595 72.9748 7.09371 72.7153 6.92636 72.3904C6.89807 72.3352 6.84032 72.1974 6.79907 72.0838C6.68005 71.7623 6.68712 71.7773 6.64587 71.7818C6.61169 71.7852 6.60933 71.7887 6.51388 72.0436C6.46084 72.186 6.39485 72.3468 6.36656 72.3995C6.19921 72.721 5.93051 72.9759 5.59935 73.1275C5.53806 73.155 5.3825 73.2148 5.25285 73.2607C5.12322 73.3054 5.01362 73.3491 5.00891 73.356C4.99476 73.3766 4.9983 73.4053 5.01362 73.4179Z" fill="white"/>
<path d="M87.3105 73.4179C87.3187 73.4249 87.4401 73.4696 87.5796 73.5179C87.7181 73.5673 87.8854 73.6339 87.9505 73.666C88.1862 73.7843 88.4137 73.9818 88.562 74.1999C88.6626 74.3457 88.7046 74.4349 88.8142 74.7308C88.9065 74.978 88.9263 75.0126 88.9667 74.9879C88.979 74.9797 89.0244 74.875 89.0779 74.7308C89.1876 74.4349 89.2304 74.3457 89.3301 74.1999C89.4793 73.9818 89.7068 73.7843 89.9425 73.666C90.0068 73.6339 90.1741 73.5673 90.3134 73.519C90.4527 73.4696 90.5738 73.4226 90.5829 73.4146C90.5928 73.4065 90.5961 73.3893 90.5911 73.372C90.5854 73.348 90.5565 73.3342 90.3464 73.2618C90.2145 73.2159 90.0579 73.155 89.9961 73.1275C89.6631 72.9748 89.3903 72.7153 89.223 72.3904C89.195 72.3352 89.1373 72.1974 89.0961 72.0838C88.9766 71.7623 88.984 71.7773 88.9428 71.7818C88.909 71.7852 88.9065 71.7887 88.8109 72.0436C88.7573 72.186 88.6914 72.3468 88.6634 72.3995C88.4961 72.721 88.2274 72.9759 87.8961 73.1275C87.8351 73.155 87.6793 73.2148 87.5499 73.2607C87.4201 73.3054 87.3105 73.3491 87.3058 73.356C87.2916 73.3766 87.2952 73.4053 87.3105 73.4179Z" fill="#00A8A8"/>
<path d="M47.7637 57.5275C63.6495 57.5275 76.5275 44.6495 76.5275 28.7637C76.5275 12.878 63.6495 0 47.7637 0C31.878 0 19 12.878 19 28.7637C19 44.6495 31.878 57.5275 47.7637 57.5275Z" fill="#00A8A8"/>
<path d="M29.0643 42.6923H25L34.9448 29.0284L44.8895 42.6923H33.2152L36.0689 38.7142H37.7985L34.9448 34.7361L29.0643 42.6923Z" fill="white"/>
<path d="M48.6949 42.6923L36.8477 26.3475L38.9231 23.4936L52.8457 42.6923H48.6949Z" fill="white"/>
<path d="M56.5642 42.6923L40.9121 20.8992L42.8146 18.1319L58.7262 39.8384L66.5089 29.0284H70.6598L60.8015 42.6923H56.5642Z" fill="white"/>
<path d="M55.1076 18.1495C55.1231 18.1628 55.3506 18.2489 55.6114 18.3416C55.8722 18.4366 56.1859 18.5647 56.3074 18.6265C56.7494 18.8539 57.1758 19.2337 57.4543 19.6532C57.6421 19.9337 57.7217 20.1059 57.9272 20.6734C58.0995 21.1503 58.1371 21.2165 58.2122 21.168C58.2366 21.1525 58.3205 20.9516 58.4222 20.6734C58.6276 20.1059 58.7072 19.9337 58.8951 19.6532C59.1735 19.2337 59.5999 18.8539 60.0419 18.6265C60.1634 18.5647 60.4772 18.4366 60.7379 18.3439C60.9987 18.2489 61.2263 18.1584 61.244 18.1429C61.2617 18.1275 61.2683 18.0944 61.2595 18.0612C61.2484 18.0148 61.1931 17.9884 60.7998 17.8493C60.5523 17.7609 60.2584 17.6439 60.1435 17.5909C59.5182 17.2972 59.0077 16.7982 58.694 16.1733C58.6409 16.0673 58.5326 15.8024 58.4553 15.5838C58.2321 14.9656 58.2454 14.9942 58.1681 15.0031C58.1039 15.0097 58.0995 15.0163 57.9206 15.5065C57.8211 15.7803 57.6974 16.0894 57.6443 16.191C57.3305 16.8092 56.8267 17.2995 56.2058 17.5909C56.0909 17.6439 55.7992 17.7587 55.5562 17.847C55.313 17.9332 55.1076 18.0171 55.0988 18.0303C55.0722 18.0701 55.0788 18.1253 55.1076 18.1495Z" fill="white"/>
</svg>
