<svg width="412" height="394" viewBox="0 0 412 394" fill="none" xmlns="http://www.w3.org/2000/svg">
<g opacity="0.3">
<g opacity="0.3">
<circle cx="359.458" cy="11.7992" r="4.35027" transform="rotate(104.701 359.458 11.7992)" fill="white"/>
<circle cx="352.836" cy="37.0477" r="4.35027" transform="rotate(104.701 352.836 37.0477)" fill="white"/>
<circle cx="346.211" cy="62.2943" r="4.35027" transform="rotate(104.701 346.211 62.2943)" fill="white"/>
<circle cx="339.588" cy="87.5409" r="4.35027" transform="rotate(104.701 339.588 87.5409)" fill="white"/>
<circle cx="332.964" cy="112.787" r="4.35027" transform="rotate(104.701 332.964 112.787)" fill="white"/>
<circle cx="326.339" cy="138.035" r="4.35027" transform="rotate(104.701 326.339 138.035)" fill="white"/>
<circle cx="319.716" cy="163.282" r="4.35027" transform="rotate(104.701 319.716 163.282)" fill="white"/>
<circle cx="313.091" cy="188.529" r="4.35027" transform="rotate(104.701 313.091 188.529)" fill="white"/>
<circle cx="306.467" cy="213.776" r="4.35027" transform="rotate(104.701 306.467 213.776)" fill="white"/>
<circle cx="299.842" cy="239.025" r="4.35027" transform="rotate(104.701 299.842 239.025)" fill="white"/>
<circle cx="293.218" cy="264.273" r="4.35027" transform="rotate(104.701 293.218 264.273)" fill="white"/>
</g>
<g opacity="0.3">
<circle cx="337.014" cy="5.91394" r="4.35027" transform="rotate(104.701 337.014 5.91394)" fill="white"/>
<circle cx="330.392" cy="31.1625" r="4.35027" transform="rotate(104.701 330.392 31.1625)" fill="white"/>
<circle cx="323.767" cy="56.4086" r="4.35027" transform="rotate(104.701 323.767 56.4086)" fill="white"/>
<circle cx="317.144" cy="81.6561" r="4.35027" transform="rotate(104.701 317.144 81.6561)" fill="white"/>
<circle cx="310.519" cy="106.902" r="4.35027" transform="rotate(104.701 310.519 106.902)" fill="white"/>
<circle cx="303.896" cy="132.151" r="4.35027" transform="rotate(104.701 303.896 132.151)" fill="white"/>
<circle cx="297.272" cy="157.397" r="4.35027" transform="rotate(104.701 297.272 157.397)" fill="white"/>
<circle cx="290.647" cy="182.643" r="4.35027" transform="rotate(104.701 290.647 182.643)" fill="white"/>
<circle cx="284.023" cy="207.891" r="4.35027" transform="rotate(104.701 284.023 207.891)" fill="white"/>
<circle cx="277.401" cy="233.139" r="4.35027" transform="rotate(104.701 277.401 233.139)" fill="white"/>
<circle opacity="0.3" cx="270.777" cy="258.386" r="4.35027" transform="rotate(104.701 270.777 258.386)" fill="white"/>
</g>
<g opacity="0.3">
<circle cx="314.572" cy="0.0238032" r="4.35027" transform="rotate(104.701 314.572 0.0238032)" fill="white"/>
<circle cx="307.95" cy="25.2728" r="4.35027" transform="rotate(104.701 307.95 25.2728)" fill="white"/>
<circle cx="301.326" cy="50.5189" r="4.35027" transform="rotate(104.701 301.326 50.5189)" fill="white"/>
<circle cx="294.703" cy="75.767" r="4.35027" transform="rotate(104.701 294.703 75.767)" fill="white"/>
<circle cx="288.078" cy="101.014" r="4.35027" transform="rotate(104.701 288.078 101.014)" fill="white"/>
<circle cx="281.454" cy="126.261" r="4.35027" transform="rotate(104.701 281.454 126.261)" fill="white"/>
<circle cx="274.83" cy="151.507" r="4.35027" transform="rotate(104.701 274.83 151.507)" fill="white"/>
<circle cx="268.206" cy="176.754" r="4.35027" transform="rotate(104.701 268.206 176.754)" fill="white"/>
<circle cx="261.583" cy="202.002" r="4.35027" transform="rotate(104.701 261.583 202.002)" fill="white"/>
<circle opacity="0.3" cx="254.959" cy="227.25" r="4.35027" transform="rotate(104.701 254.959 227.25)" fill="white"/>
<circle opacity="0.3" cx="248.336" cy="252.496" r="4.35027" transform="rotate(104.701 248.336 252.496)" fill="white"/>
</g>
<g opacity="0.3">
<circle cx="411.684" cy="269.869" r="4.35027" transform="rotate(104.701 411.684 269.869)" fill="white"/>
<circle cx="405.06" cy="295.115" r="4.35027" transform="rotate(104.701 405.06 295.115)" fill="white"/>
</g>
<g opacity="0.3">
<circle cx="285.508" cy="19.3856" r="4.35027" transform="rotate(104.701 285.508 19.3856)" fill="white"/>
<circle cx="278.883" cy="44.6327" r="4.35027" transform="rotate(104.701 278.883 44.6327)" fill="white"/>
<circle cx="272.261" cy="69.8802" r="4.35027" transform="rotate(104.701 272.261 69.8802)" fill="white"/>
<circle cx="265.636" cy="95.1263" r="4.35027" transform="rotate(104.701 265.636 95.1263)" fill="white"/>
<circle cx="259.012" cy="120.373" r="4.35027" transform="rotate(104.701 259.012 120.373)" fill="white"/>
<circle cx="252.388" cy="145.62" r="4.35027" transform="rotate(104.701 252.388 145.62)" fill="white"/>
<circle cx="245.764" cy="170.867" r="4.35027" transform="rotate(104.701 245.764 170.867)" fill="white"/>
<circle opacity="0.3" cx="239.141" cy="196.115" r="4.35027" transform="rotate(104.701 239.141 196.115)" fill="white"/>
<circle opacity="0.3" cx="232.517" cy="221.362" r="4.35027" transform="rotate(104.701 232.517 221.362)" fill="white"/>
<circle opacity="0.3" cx="225.894" cy="246.61" r="4.35027" transform="rotate(104.701 225.894 246.61)" fill="white"/>
</g>
<g opacity="0.3">
<circle cx="415.738" cy="162.993" r="4.35027" transform="rotate(104.701 415.738 162.993)" fill="white"/>
<circle cx="409.115" cy="188.238" r="4.35027" transform="rotate(104.701 409.115 188.238)" fill="white"/>
<circle cx="402.491" cy="213.485" r="4.35027" transform="rotate(104.701 402.491 213.485)" fill="white"/>
<circle cx="395.866" cy="238.732" r="4.35027" transform="rotate(104.701 395.866 238.732)" fill="white"/>
<circle cx="389.244" cy="263.981" r="4.35027" transform="rotate(104.701 389.244 263.981)" fill="white"/>
<circle cx="382.62" cy="289.227" r="4.35027" transform="rotate(104.701 382.62 289.227)" fill="white"/>
</g>
<g opacity="0.3">
<circle cx="263.067" cy="13.4989" r="4.35027" transform="rotate(104.701 263.067 13.4989)" fill="white"/>
<circle cx="256.443" cy="38.7455" r="4.35027" transform="rotate(104.701 256.443 38.7455)" fill="white"/>
<circle cx="249.82" cy="63.9935" r="4.35027" transform="rotate(104.701 249.82 63.9935)" fill="white"/>
<circle cx="243.196" cy="89.2396" r="4.35027" transform="rotate(104.701 243.196 89.2396)" fill="white"/>
<circle cx="236.571" cy="114.486" r="4.35027" transform="rotate(104.701 236.571 114.486)" fill="white"/>
<circle cx="229.948" cy="139.734" r="4.35027" transform="rotate(104.701 229.948 139.734)" fill="white"/>
<circle opacity="0.3" cx="223.323" cy="164.981" r="4.35027" transform="rotate(104.701 223.323 164.981)" fill="white"/>
<circle opacity="0.3" cx="216.7" cy="190.228" r="4.35027" transform="rotate(104.701 216.7 190.228)" fill="white"/>
<circle opacity="0.3" cx="210.076" cy="215.475" r="4.35027" transform="rotate(104.701 210.076 215.475)" fill="white"/>
<circle opacity="0.3" cx="203.453" cy="240.723" r="4.35027" transform="rotate(104.701 203.453 240.723)" fill="white"/>
</g>
<g opacity="0.3">
<circle cx="413.169" cy="81.3632" r="4.35027" transform="rotate(104.701 413.169 81.3632)" fill="white"/>
<circle cx="406.545" cy="106.611" r="4.35027" transform="rotate(104.701 406.545 106.611)" fill="white"/>
<circle cx="399.92" cy="131.857" r="4.35027" transform="rotate(104.701 399.92 131.857)" fill="white"/>
<circle cx="393.297" cy="157.105" r="4.35027" transform="rotate(104.701 393.297 157.105)" fill="white"/>
<circle cx="386.673" cy="182.351" r="4.35027" transform="rotate(104.701 386.673 182.351)" fill="white"/>
<circle cx="380.049" cy="207.598" r="4.35027" transform="rotate(104.701 380.049 207.598)" fill="white"/>
<circle cx="373.425" cy="232.846" r="4.35027" transform="rotate(104.701 373.425 232.846)" fill="white"/>
<circle cx="366.801" cy="258.095" r="4.35027" transform="rotate(104.701 366.801 258.095)" fill="white"/>
<circle cx="360.177" cy="283.341" r="4.35027" transform="rotate(104.701 360.177 283.341)" fill="white"/>
</g>
<g opacity="0.3">
<circle cx="240.624" cy="7.60974" r="4.35027" transform="rotate(104.701 240.624 7.60974)" fill="white"/>
<circle cx="234" cy="32.8563" r="4.35027" transform="rotate(104.701 234 32.8563)" fill="white"/>
<circle cx="227.377" cy="58.1044" r="4.35027" transform="rotate(104.701 227.377 58.1044)" fill="white"/>
<circle cx="220.752" cy="83.351" r="4.35027" transform="rotate(104.701 220.752 83.351)" fill="white"/>
<circle cx="214.128" cy="108.598" r="4.35027" transform="rotate(104.701 214.128 108.598)" fill="white"/>
<circle opacity="0.3" cx="207.504" cy="133.845" r="4.35027" transform="rotate(104.701 207.504 133.845)" fill="white"/>
<circle opacity="0.3" cx="200.88" cy="159.092" r="4.35027" transform="rotate(104.701 200.88 159.092)" fill="white"/>
<circle opacity="0.3" cx="194.257" cy="184.339" r="4.35027" transform="rotate(104.701 194.257 184.339)" fill="white"/>
<circle opacity="0.3" cx="187.633" cy="209.587" r="4.35027" transform="rotate(104.701 187.633 209.587)" fill="white"/>
<circle opacity="0.3" cx="181.008" cy="234.833" r="4.35027" transform="rotate(104.701 181.008 234.833)" fill="white"/>
</g>
<g opacity="0.3">
<circle cx="410.598" cy="-0.266236" r="4.35027" transform="rotate(104.701 410.598 -0.266236)" fill="white"/>
<circle cx="403.974" cy="24.9803" r="4.35027" transform="rotate(104.701 403.974 24.9803)" fill="white"/>
<circle cx="397.351" cy="50.2289" r="4.35027" transform="rotate(104.701 397.351 50.2289)" fill="white"/>
<circle cx="390.726" cy="75.4755" r="4.35027" transform="rotate(104.701 390.726 75.4755)" fill="white"/>
<circle cx="384.104" cy="100.724" r="4.35027" transform="rotate(104.701 384.104 100.724)" fill="white"/>
<circle cx="377.479" cy="125.97" r="4.35027" transform="rotate(104.701 377.479 125.97)" fill="white"/>
<circle cx="370.855" cy="151.216" r="4.35027" transform="rotate(104.701 370.855 151.216)" fill="white"/>
<circle cx="364.231" cy="176.464" r="4.35027" transform="rotate(104.701 364.231 176.464)" fill="white"/>
<circle cx="357.607" cy="201.71" r="4.35027" transform="rotate(104.701 357.607 201.71)" fill="white"/>
<circle cx="350.984" cy="226.957" r="4.35027" transform="rotate(104.701 350.984 226.957)" fill="white"/>
<circle cx="344.36" cy="252.205" r="4.35027" transform="rotate(104.701 344.36 252.205)" fill="white"/>
<circle cx="337.736" cy="277.452" r="4.35027" transform="rotate(104.701 337.736 277.452)" fill="white"/>
</g>
<g opacity="0.3">
<circle cx="218.184" cy="1.724" r="4.35027" transform="rotate(104.701 218.184 1.724)" fill="white"/>
<circle cx="211.559" cy="26.9706" r="4.35027" transform="rotate(104.701 211.559 26.9706)" fill="white"/>
<circle cx="204.935" cy="52.2162" r="4.35027" transform="rotate(104.701 204.935 52.2162)" fill="white"/>
<circle cx="198.311" cy="77.4637" r="4.35027" transform="rotate(104.701 198.311 77.4637)" fill="white"/>
<circle opacity="0.3" cx="191.686" cy="102.711" r="4.35027" transform="rotate(104.701 191.686 102.711)" fill="white"/>
<circle opacity="0.3" cx="185.064" cy="127.958" r="4.35027" transform="rotate(104.701 185.064 127.958)" fill="white"/>
<circle opacity="0.3" cx="178.439" cy="153.205" r="4.35027" transform="rotate(104.701 178.439 153.205)" fill="white"/>
<circle opacity="0.3" cx="171.815" cy="178.452" r="4.35027" transform="rotate(104.701 171.815 178.452)" fill="white"/>
<circle opacity="0.3" cx="165.192" cy="203.7" r="4.35027" transform="rotate(104.701 165.192 203.7)" fill="white"/>
<circle opacity="0.3" cx="158.569" cy="228.947" r="4.35027" transform="rotate(104.701 158.569 228.947)" fill="white"/>
</g>
<g opacity="0.3">
<circle cx="381.53" cy="19.0907" r="4.35027" transform="rotate(104.701 381.53 19.0907)" fill="white"/>
<circle cx="374.908" cy="44.3392" r="4.35027" transform="rotate(104.701 374.908 44.3392)" fill="white"/>
<circle cx="368.283" cy="69.5858" r="4.35027" transform="rotate(104.701 368.283 69.5858)" fill="white"/>
<circle cx="361.66" cy="94.8324" r="4.35027" transform="rotate(104.701 361.66 94.8324)" fill="white"/>
<circle cx="355.035" cy="120.079" r="4.35027" transform="rotate(104.701 355.035 120.079)" fill="white"/>
<circle cx="348.411" cy="145.326" r="4.35027" transform="rotate(104.701 348.411 145.326)" fill="white"/>
<circle cx="341.788" cy="170.574" r="4.35027" transform="rotate(104.701 341.788 170.574)" fill="white"/>
<circle cx="335.163" cy="195.82" r="4.35027" transform="rotate(104.701 335.163 195.82)" fill="white"/>
<circle cx="328.54" cy="221.067" r="4.35027" transform="rotate(104.701 328.54 221.067)" fill="white"/>
<circle cx="321.916" cy="246.315" r="4.35027" transform="rotate(104.701 321.916 246.315)" fill="white"/>
<circle cx="315.292" cy="271.562" r="4.35027" transform="rotate(104.701 315.292 271.562)" fill="white"/>
</g>
<g opacity="0.3">
<circle cx="195.741" cy="-4.16663" r="4.35027" transform="rotate(104.701 195.741 -4.16663)" fill="white"/>
<circle cx="189.117" cy="21.08" r="4.35027" transform="rotate(104.701 189.117 21.08)" fill="white"/>
<circle cx="182.494" cy="46.328" r="4.35027" transform="rotate(104.701 182.494 46.328)" fill="white"/>
<circle opacity="0.3" cx="175.87" cy="71.5746" r="4.35027" transform="rotate(104.701 175.87 71.5746)" fill="white"/>
<circle opacity="0.3" cx="169.245" cy="96.8207" r="4.35027" transform="rotate(104.701 169.245 96.8207)" fill="white"/>
<circle opacity="0.3" cx="162.622" cy="122.069" r="4.35027" transform="rotate(104.701 162.622 122.069)" fill="white"/>
<circle opacity="0.3" cx="155.997" cy="147.315" r="4.35027" transform="rotate(104.701 155.997 147.315)" fill="white"/>
<circle opacity="0.3" cx="149.375" cy="172.562" r="4.35027" transform="rotate(104.701 149.375 172.562)" fill="white"/>
<circle opacity="0.3" cx="142.75" cy="197.81" r="4.35027" transform="rotate(104.701 142.75 197.81)" fill="white"/>
<circle opacity="0.3" cx="136.128" cy="223.057" r="4.35027" transform="rotate(104.701 136.128 223.057)" fill="white"/>
</g>
</g>
</svg>
