<svg width="141" height="60" viewBox="0 0 141 60" fill="none" xmlns="http://www.w3.org/2000/svg">
<g clip-path="url(#clip0_4764_1258)">
<path d="M14.4121 27.9412C14.4121 28.2931 14.4724 28.6415 14.5889 28.9706H20.4118C20.5288 28.64 20.5885 28.2919 20.5886 27.9412C20.5886 26.2384 19.2033 24.853 17.5003 24.853C15.7976 24.853 14.4121 26.2384 14.4121 27.9412Z" fill="white"/>
<path d="M17.4998 22.7941C20.738 22.7941 23.1958 25.7726 22.5423 28.9706H32.9409V25.0787L29.2618 24.1588C29.0561 23.5189 28.7984 22.8969 28.4911 22.299L30.4426 19.0467L26.3943 14.9985L23.142 16.9498C22.5442 16.6425 21.9221 16.3847 21.2822 16.1791L20.3624 12.5H14.6373L13.7174 16.1792C13.0775 16.3848 12.4555 16.6426 11.8576 16.9499L8.60538 14.9985L4.55704 19.0468L6.5084 22.299C6.20108 22.8968 5.94334 23.5189 5.73778 24.1588L2.05859 25.0787V28.9706H12.4572C11.8038 25.7724 14.2617 22.7941 17.4998 22.7941ZM17.4998 36.1765H16.4704V38.2353H17.4998C18.0675 38.2353 18.5292 37.7736 18.5292 37.2059C18.5292 36.6382 18.0675 36.1765 17.4998 36.1765ZM25.7351 36.1765H24.7057V38.2353H25.7351C26.3028 38.2353 26.7645 37.7736 26.7645 37.2059C26.7645 36.6382 26.3028 36.1765 25.7351 36.1765Z" fill="white"/>
<path d="M0 31.0294V47.5H35V31.0294H0ZM12.3529 36.1765H9.26471V38.2353H11.3235V40.2941H9.26471V42.3529H12.3529V44.4118H7.20588V34.1177H12.3529V36.1765ZM20.5882 41.3235V44.4118H18.5294V41.3235C18.5294 40.7559 18.0677 40.2941 17.5 40.2941H16.4706V44.4118H14.4118V34.1177H17.5C19.2029 34.1177 20.5882 35.503 20.5882 37.2059C20.5882 37.9963 20.2895 38.7179 19.7994 39.2647C20.2895 39.8115 20.5882 40.5332 20.5882 41.3235ZM25.7353 40.2941H24.7059V44.4118H22.6471V34.1177H25.7353C27.4382 34.1177 28.8235 35.503 28.8235 37.2059C28.8235 38.9088 27.4382 40.2941 25.7353 40.2941Z" fill="white"/>
</g>
<path d="M53.36 9.54V14.2H58.44V15.7H53.36V20.5H59.04V22H51.54V8.04H59.04V9.54H53.36ZM69.1339 22L65.8139 16.3H63.6139V22H61.7939V8.06H66.2939C67.3472 8.06 68.2339 8.24 68.9539 8.6C69.6872 8.96 70.2339 9.44667 70.5939 10.06C70.9539 10.6733 71.1339 11.3733 71.1339 12.16C71.1339 13.12 70.8539 13.9667 70.2939 14.7C69.7472 15.4333 68.9206 15.92 67.8139 16.16L71.3139 22H69.1339ZM63.6139 14.84H66.2939C67.2806 14.84 68.0206 14.6 68.5139 14.12C69.0072 13.6267 69.2539 12.9733 69.2539 12.16C69.2539 11.3333 69.0072 10.6933 68.5139 10.24C68.0339 9.78667 67.2939 9.56 66.2939 9.56H63.6139V14.84ZM83.2819 12.14C83.2819 13.3 82.8819 14.2667 82.0819 15.04C81.2952 15.8 80.0885 16.18 78.4619 16.18H75.7819V22H73.9619V8.06H78.4619C80.0352 8.06 81.2285 8.44 82.0419 9.2C82.8685 9.96 83.2819 10.94 83.2819 12.14ZM78.4619 14.68C79.4752 14.68 80.2219 14.46 80.7019 14.02C81.1819 13.58 81.4219 12.9533 81.4219 12.14C81.4219 10.42 80.4352 9.56 78.4619 9.56H75.7819V14.68H78.4619ZM55.96 52.14C55.04 52.14 54.2133 51.98 53.48 51.66C52.76 51.3267 52.1933 50.8733 51.78 50.3C51.3667 49.7133 51.1533 49.04 51.14 48.28H53.08C53.1467 48.9333 53.4133 49.4867 53.88 49.94C54.36 50.38 55.0533 50.6 55.96 50.6C56.8267 50.6 57.5067 50.3867 58 49.96C58.5067 49.52 58.76 48.96 58.76 48.28C58.76 47.7467 58.6133 47.3133 58.32 46.98C58.0267 46.6467 57.66 46.3933 57.22 46.22C56.78 46.0467 56.1867 45.86 55.44 45.66C54.52 45.42 53.78 45.18 53.22 44.94C52.6733 44.7 52.2 44.3267 51.8 43.82C51.4133 43.3 51.22 42.6067 51.22 41.74C51.22 40.98 51.4133 40.3067 51.8 39.72C52.1867 39.1333 52.7267 38.68 53.42 38.36C54.1267 38.04 54.9333 37.88 55.84 37.88C57.1467 37.88 58.2133 38.2067 59.04 38.86C59.88 39.5133 60.3533 40.38 60.46 41.46H58.46C58.3933 40.9267 58.1133 40.46 57.62 40.06C57.1267 39.6467 56.4733 39.44 55.66 39.44C54.9 39.44 54.28 39.64 53.8 40.04C53.32 40.4267 53.08 40.9733 53.08 41.68C53.08 42.1867 53.22 42.6 53.5 42.92C53.7933 43.24 54.1467 43.4867 54.56 43.66C54.9867 43.82 55.58 44.0067 56.34 44.22C57.26 44.4733 58 44.7267 58.56 44.98C59.12 45.22 59.6 45.6 60 46.12C60.4 46.6267 60.6 47.32 60.6 48.2C60.6 48.88 60.42 49.52 60.06 50.12C59.7 50.72 59.1667 51.2067 58.46 51.58C57.7533 51.9533 56.92 52.14 55.96 52.14ZM68.0583 52.18C67.0316 52.18 66.0983 51.9467 65.2583 51.48C64.4316 51.0133 63.7783 50.3533 63.2983 49.5C62.8316 48.6333 62.5983 47.6333 62.5983 46.5C62.5983 45.38 62.8383 44.3933 63.3183 43.54C63.8116 42.6733 64.4783 42.0133 65.3183 41.56C66.1583 41.0933 67.0983 40.86 68.1383 40.86C69.1783 40.86 70.1183 41.0933 70.9583 41.56C71.7983 42.0133 72.4583 42.6667 72.9383 43.52C73.4316 44.3733 73.6783 45.3667 73.6783 46.5C73.6783 47.6333 73.4249 48.6333 72.9183 49.5C72.4249 50.3533 71.7516 51.0133 70.8983 51.48C70.0449 51.9467 69.0983 52.18 68.0583 52.18ZM68.0583 50.58C68.7116 50.58 69.3249 50.4267 69.8983 50.12C70.4716 49.8133 70.9316 49.3533 71.2783 48.74C71.6383 48.1267 71.8183 47.38 71.8183 46.5C71.8183 45.62 71.6449 44.8733 71.2983 44.26C70.9516 43.6467 70.4983 43.1933 69.9383 42.9C69.3783 42.5933 68.7716 42.44 68.1183 42.44C67.4516 42.44 66.8383 42.5933 66.2783 42.9C65.7316 43.1933 65.2916 43.6467 64.9583 44.26C64.6249 44.8733 64.4583 45.62 64.4583 46.5C64.4583 47.3933 64.6183 48.1467 64.9383 48.76C65.2716 49.3733 65.7116 49.8333 66.2583 50.14C66.8049 50.4333 67.4049 50.58 68.0583 50.58ZM77.8913 37.2V52H76.0713V37.2H77.8913ZM90.7131 41.04V52H88.8931V50.38C88.5465 50.94 88.0598 51.38 87.4331 51.7C86.8198 52.0067 86.1398 52.16 85.3931 52.16C84.5398 52.16 83.7731 51.9867 83.0931 51.64C82.4131 51.28 81.8731 50.7467 81.4731 50.04C81.0865 49.3333 80.8931 48.4733 80.8931 47.46V41.04H82.6931V47.22C82.6931 48.3 82.9665 49.1333 83.5131 49.72C84.0598 50.2933 84.8065 50.58 85.7531 50.58C86.7265 50.58 87.4931 50.28 88.0531 49.68C88.6131 49.08 88.8931 48.2067 88.8931 47.06V41.04H90.7131ZM96.0061 42.54V49C96.0061 49.5333 96.1194 49.9133 96.3461 50.14C96.5728 50.3533 96.9661 50.46 97.5261 50.46H98.8661V52H97.2261C96.2128 52 95.4528 51.7667 94.9461 51.3C94.4394 50.8333 94.1861 50.0667 94.1861 49V42.54H92.7661V41.04H94.1861V38.28H96.0061V41.04H98.8661V42.54H96.0061ZM102.011 39.26C101.665 39.26 101.371 39.14 101.131 38.9C100.891 38.66 100.771 38.3667 100.771 38.02C100.771 37.6733 100.891 37.38 101.131 37.14C101.371 36.9 101.665 36.78 102.011 36.78C102.345 36.78 102.625 36.9 102.851 37.14C103.091 37.38 103.211 37.6733 103.211 38.02C103.211 38.3667 103.091 38.66 102.851 38.9C102.625 39.14 102.345 39.26 102.011 39.26ZM102.891 41.04V52H101.071V41.04H102.891ZM110.773 52.18C109.746 52.18 108.813 51.9467 107.973 51.48C107.146 51.0133 106.493 50.3533 106.013 49.5C105.546 48.6333 105.313 47.6333 105.313 46.5C105.313 45.38 105.553 44.3933 106.033 43.54C106.526 42.6733 107.193 42.0133 108.033 41.56C108.873 41.0933 109.813 40.86 110.853 40.86C111.893 40.86 112.833 41.0933 113.673 41.56C114.513 42.0133 115.173 42.6667 115.653 43.52C116.146 44.3733 116.393 45.3667 116.393 46.5C116.393 47.6333 116.14 48.6333 115.633 49.5C115.14 50.3533 114.466 51.0133 113.613 51.48C112.76 51.9467 111.813 52.18 110.773 52.18ZM110.773 50.58C111.426 50.58 112.04 50.4267 112.613 50.12C113.186 49.8133 113.646 49.3533 113.993 48.74C114.353 48.1267 114.533 47.38 114.533 46.5C114.533 45.62 114.36 44.8733 114.013 44.26C113.666 43.6467 113.213 43.1933 112.653 42.9C112.093 42.5933 111.486 42.44 110.833 42.44C110.166 42.44 109.553 42.5933 108.993 42.9C108.446 43.1933 108.006 43.6467 107.673 44.26C107.34 44.8733 107.173 45.62 107.173 46.5C107.173 47.3933 107.333 48.1467 107.653 48.76C107.986 49.3733 108.426 49.8333 108.973 50.14C109.52 50.4333 110.12 50.58 110.773 50.58ZM124.126 40.84C125.459 40.84 126.539 41.2467 127.366 42.06C128.193 42.86 128.606 44.02 128.606 45.54V52H126.806V45.8C126.806 44.7067 126.533 43.8733 125.986 43.3C125.439 42.7133 124.693 42.42 123.746 42.42C122.786 42.42 122.019 42.72 121.446 43.32C120.886 43.92 120.606 44.7933 120.606 45.94V52H118.786V41.04H120.606V42.6C120.966 42.04 121.453 41.6067 122.066 41.3C122.693 40.9933 123.379 40.84 124.126 40.84ZM135.459 52.18C134.619 52.18 133.866 52.04 133.199 51.76C132.532 51.4667 132.006 51.0667 131.619 50.56C131.232 50.04 131.019 49.4467 130.979 48.78H132.859C132.912 49.3267 133.166 49.7733 133.619 50.12C134.086 50.4667 134.692 50.64 135.439 50.64C136.132 50.64 136.679 50.4867 137.079 50.18C137.479 49.8733 137.679 49.4867 137.679 49.02C137.679 48.54 137.466 48.1867 137.039 47.96C136.612 47.72 135.952 47.4867 135.059 47.26C134.246 47.0467 133.579 46.8333 133.059 46.62C132.552 46.3933 132.112 46.0667 131.739 45.64C131.379 45.2 131.199 44.6267 131.199 43.92C131.199 43.36 131.366 42.8467 131.699 42.38C132.032 41.9133 132.506 41.5467 133.119 41.28C133.732 41 134.432 40.86 135.219 40.86C136.432 40.86 137.412 41.1667 138.159 41.78C138.906 42.3933 139.306 43.2333 139.359 44.3H137.539C137.499 43.7267 137.266 43.2667 136.839 42.92C136.426 42.5733 135.866 42.4 135.159 42.4C134.506 42.4 133.986 42.54 133.599 42.82C133.212 43.1 133.019 43.4667 133.019 43.92C133.019 44.28 133.132 44.58 133.359 44.82C133.599 45.0467 133.892 45.2333 134.239 45.38C134.599 45.5133 135.092 45.6667 135.719 45.84C136.506 46.0533 137.146 46.2667 137.639 46.48C138.132 46.68 138.552 46.9867 138.899 47.4C139.259 47.8133 139.446 48.3533 139.459 49.02C139.459 49.62 139.292 50.16 138.959 50.64C138.626 51.12 138.152 51.5 137.539 51.78C136.939 52.0467 136.246 52.18 135.459 52.18Z" fill="white"/>
<defs>
<clipPath id="clip0_4764_1258">
<rect width="35" height="35" fill="white" transform="translate(0 12.5)"/>
</clipPath>
</defs>
</svg>
