<svg width="185" height="60" viewBox="0 0 185 60" fill="none" xmlns="http://www.w3.org/2000/svg">
<g clip-path="url(#clip0_4764_1265)">
<path d="M27.8906 15.2891C27.8906 13.751 26.6396 12.5 25.1016 12.5H9.89844C8.36035 12.5 7.10938 13.751 7.10938 15.2891V16.3247H27.8906V15.2891ZM7.10938 18.3755H27.8906V20.4297H7.10938V18.3755ZM7.10938 44.7109C7.10938 46.249 8.36035 47.5 9.89844 47.5H25.1016C26.6396 47.5 27.8906 46.249 27.8906 44.7109V40.9375H7.10938V44.7109ZM15.7568 42.7148H19.2432C19.8092 42.7148 20.2686 43.1742 20.2686 43.7402C20.2686 44.3062 19.8092 44.7656 19.2432 44.7656H15.7568C15.1908 44.7656 14.7314 44.3062 14.7314 43.7402C14.7314 43.1742 15.1908 42.7148 15.7568 42.7148ZM29.4629 22.4805H5.53711C4.97109 22.4805 4.51172 22.9398 4.51172 23.5059V37.8613C4.51172 38.4273 4.97109 38.8867 5.53711 38.8867H29.4629C30.0289 38.8867 30.4883 38.4273 30.4883 37.8613V23.5059C30.4883 22.9398 30.0289 22.4805 29.4629 22.4805ZM13.7819 32.1123C14.1825 32.5122 14.1825 33.1616 13.7819 33.5622C13.5816 33.7625 13.3191 33.8623 13.0566 33.8623C12.7941 33.8623 12.5316 33.7625 12.3313 33.5622L10.178 31.4089C9.77812 31.0083 9.77812 30.3589 10.178 29.959L12.3313 27.8057C12.7319 27.4051 13.3813 27.4051 13.7819 27.8057C14.1825 28.2056 14.1825 28.855 13.7819 29.2556L12.3532 30.6836L13.7819 32.1123ZM19.453 27.1795L17.5342 34.6949C17.4024 35.2383 16.8205 35.5789 16.2866 35.4346C15.7384 35.2944 15.4068 34.7359 15.547 34.1877L17.4658 26.6723C17.6008 26.1323 18.163 25.7889 18.7134 25.9326C19.2616 26.0728 19.5932 26.6313 19.453 27.1795ZM24.822 31.4089L22.6687 33.5622C22.4684 33.7625 22.2059 33.8623 21.9434 33.8623C21.6809 33.8623 21.4184 33.7625 21.2181 33.5622C20.8182 33.1616 20.8182 32.5122 21.2181 32.1116L22.6468 30.6836L21.2181 29.2556C20.8182 28.855 20.8182 28.2056 21.2181 27.805C21.6187 27.4051 22.2681 27.4051 22.6687 27.805L24.822 29.9583C25.2219 30.3589 25.2219 31.0083 24.822 31.4089Z" fill="white"/>
</g>
<path d="M65.68 8.16V22H63.86V11.68L59.26 22H57.98L53.36 11.66V22H51.54V8.16H53.5L58.62 19.6L63.74 8.16H65.68ZM73.5466 22.18C72.5199 22.18 71.5866 21.9467 70.7466 21.48C69.9199 21.0133 69.2666 20.3533 68.7866 19.5C68.3199 18.6333 68.0866 17.6333 68.0866 16.5C68.0866 15.38 68.3266 14.3933 68.8066 13.54C69.2999 12.6733 69.9666 12.0133 70.8066 11.56C71.6466 11.0933 72.5866 10.86 73.6266 10.86C74.6666 10.86 75.6066 11.0933 76.4466 11.56C77.2866 12.0133 77.9466 12.6667 78.4266 13.52C78.9199 14.3733 79.1666 15.3667 79.1666 16.5C79.1666 17.6333 78.9132 18.6333 78.4066 19.5C77.9132 20.3533 77.2399 21.0133 76.3866 21.48C75.5332 21.9467 74.5866 22.18 73.5466 22.18ZM73.5466 20.58C74.1999 20.58 74.8132 20.4267 75.3866 20.12C75.9599 19.8133 76.4199 19.3533 76.7666 18.74C77.1266 18.1267 77.3066 17.38 77.3066 16.5C77.3066 15.62 77.1332 14.8733 76.7866 14.26C76.4399 13.6467 75.9866 13.1933 75.4266 12.9C74.8666 12.5933 74.2599 12.44 73.6066 12.44C72.9399 12.44 72.3266 12.5933 71.7666 12.9C71.2199 13.1933 70.7799 13.6467 70.4466 14.26C70.1132 14.8733 69.9466 15.62 69.9466 16.5C69.9466 17.3933 70.1066 18.1467 70.4266 18.76C70.7599 19.3733 71.1999 19.8333 71.7466 20.14C72.2932 20.4333 72.8932 20.58 73.5466 20.58ZM83.3795 13.08C83.7529 12.4267 84.2995 11.8933 85.0195 11.48C85.7395 11.0667 86.5595 10.86 87.4795 10.86C88.4662 10.86 89.3529 11.0933 90.1395 11.56C90.9262 12.0267 91.5462 12.6867 91.9995 13.54C92.4529 14.38 92.6795 15.36 92.6795 16.48C92.6795 17.5867 92.4529 18.5733 91.9995 19.44C91.5462 20.3067 90.9195 20.98 90.1195 21.46C89.3329 21.94 88.4529 22.18 87.4795 22.18C86.5329 22.18 85.6995 21.9733 84.9795 21.56C84.2729 21.1467 83.7395 20.62 83.3795 19.98V22H81.5595V7.2H83.3795V13.08ZM90.8195 16.48C90.8195 15.6533 90.6529 14.9333 90.3195 14.32C89.9862 13.7067 89.5329 13.24 88.9595 12.92C88.3995 12.6 87.7795 12.44 87.0995 12.44C86.4329 12.44 85.8129 12.6067 85.2395 12.94C84.6795 13.26 84.2262 13.7333 83.8795 14.36C83.5462 14.9733 83.3795 15.6867 83.3795 16.5C83.3795 17.3267 83.5462 18.0533 83.8795 18.68C84.2262 19.2933 84.6795 19.7667 85.2395 20.1C85.8129 20.42 86.4329 20.58 87.0995 20.58C87.7795 20.58 88.3995 20.42 88.9595 20.1C89.5329 19.7667 89.9862 19.2933 90.3195 18.68C90.6529 18.0533 90.8195 17.32 90.8195 16.48ZM96.0152 9.26C95.6685 9.26 95.3752 9.14 95.1352 8.9C94.8952 8.66 94.7752 8.36667 94.7752 8.02C94.7752 7.67333 94.8952 7.38 95.1352 7.14C95.3752 6.9 95.6685 6.78 96.0152 6.78C96.3485 6.78 96.6285 6.9 96.8552 7.14C97.0952 7.38 97.2152 7.67333 97.2152 8.02C97.2152 8.36667 97.0952 8.66 96.8552 8.9C96.6285 9.14 96.3485 9.26 96.0152 9.26ZM96.8952 11.04V22H95.0752V11.04H96.8952ZM101.817 7.2V22H99.997V7.2H101.817ZM114.919 16.1C114.919 16.4467 114.899 16.8133 114.859 17.2H106.099C106.166 18.28 106.532 19.1267 107.199 19.74C107.879 20.34 108.699 20.64 109.659 20.64C110.446 20.64 111.099 20.46 111.619 20.1C112.152 19.7267 112.526 19.2333 112.739 18.62H114.699C114.406 19.6733 113.819 20.5333 112.939 21.2C112.059 21.8533 110.966 22.18 109.659 22.18C108.619 22.18 107.686 21.9467 106.859 21.48C106.046 21.0133 105.406 20.3533 104.939 19.5C104.472 18.6333 104.239 17.6333 104.239 16.5C104.239 15.3667 104.466 14.3733 104.919 13.52C105.372 12.6667 106.006 12.0133 106.819 11.56C107.646 11.0933 108.592 10.86 109.659 10.86C110.699 10.86 111.619 11.0867 112.419 11.54C113.219 11.9933 113.832 12.62 114.259 13.42C114.699 14.2067 114.919 15.1 114.919 16.1ZM113.039 15.72C113.039 15.0267 112.886 14.4333 112.579 13.94C112.272 13.4333 111.852 13.0533 111.319 12.8C110.799 12.5333 110.219 12.4 109.579 12.4C108.659 12.4 107.872 12.6933 107.219 13.28C106.579 13.8667 106.212 14.68 106.119 15.72H113.039ZM55.88 38.06C57.4 38.06 58.7133 38.3467 59.82 38.92C60.94 39.48 61.7933 40.2867 62.38 41.34C62.98 42.3933 63.28 43.6333 63.28 45.06C63.28 46.4867 62.98 47.7267 62.38 48.78C61.7933 49.82 60.94 50.62 59.82 51.18C58.7133 51.7267 57.4 52 55.88 52H51.54V38.06H55.88ZM55.88 50.5C57.68 50.5 59.0533 50.0267 60 49.08C60.9467 48.12 61.42 46.78 61.42 45.06C61.42 43.3267 60.94 41.9733 59.98 41C59.0333 40.0267 57.6667 39.54 55.88 39.54H53.36V50.5H55.88ZM75.6806 46.1C75.6806 46.4467 75.6606 46.8133 75.6206 47.2H66.8606C66.9273 48.28 67.294 49.1267 67.9606 49.74C68.6406 50.34 69.4606 50.64 70.4206 50.64C71.2073 50.64 71.8606 50.46 72.3806 50.1C72.914 49.7267 73.2873 49.2333 73.5006 48.62H75.4606C75.1673 49.6733 74.5806 50.5333 73.7006 51.2C72.8206 51.8533 71.7273 52.18 70.4206 52.18C69.3806 52.18 68.4473 51.9467 67.6206 51.48C66.8073 51.0133 66.1673 50.3533 65.7006 49.5C65.234 48.6333 65.0006 47.6333 65.0006 46.5C65.0006 45.3667 65.2273 44.3733 65.6806 43.52C66.134 42.6667 66.7673 42.0133 67.5806 41.56C68.4073 41.0933 69.354 40.86 70.4206 40.86C71.4606 40.86 72.3806 41.0867 73.1806 41.54C73.9806 41.9933 74.594 42.62 75.0206 43.42C75.4606 44.2067 75.6806 45.1 75.6806 46.1ZM73.8006 45.72C73.8006 45.0267 73.6473 44.4333 73.3406 43.94C73.034 43.4333 72.614 43.0533 72.0806 42.8C71.5606 42.5333 70.9806 42.4 70.3406 42.4C69.4206 42.4 68.634 42.6933 67.9806 43.28C67.3406 43.8667 66.974 44.68 66.8806 45.72H73.8006ZM82.163 50.32L85.563 41.04H87.503L83.203 52H81.083L76.783 41.04H78.743L82.163 50.32ZM99.2939 46.1C99.2939 46.4467 99.2739 46.8133 99.2339 47.2H90.4739C90.5406 48.28 90.9072 49.1267 91.5739 49.74C92.2539 50.34 93.0739 50.64 94.0339 50.64C94.8206 50.64 95.4739 50.46 95.9939 50.1C96.5272 49.7267 96.9006 49.2333 97.1139 48.62H99.0739C98.7806 49.6733 98.1939 50.5333 97.3139 51.2C96.4339 51.8533 95.3406 52.18 94.0339 52.18C92.9939 52.18 92.0606 51.9467 91.2339 51.48C90.4206 51.0133 89.7806 50.3533 89.3139 49.5C88.8472 48.6333 88.6139 47.6333 88.6139 46.5C88.6139 45.3667 88.8406 44.3733 89.2939 43.52C89.7472 42.6667 90.3806 42.0133 91.1939 41.56C92.0206 41.0933 92.9672 40.86 94.0339 40.86C95.0739 40.86 95.9939 41.0867 96.7939 41.54C97.5939 41.9933 98.2072 42.62 98.6339 43.42C99.0739 44.2067 99.2939 45.1 99.2939 46.1ZM97.4139 45.72C97.4139 45.0267 97.2606 44.4333 96.9539 43.94C96.6472 43.4333 96.2272 43.0533 95.6939 42.8C95.1739 42.5333 94.5939 42.4 93.9539 42.4C93.0339 42.4 92.2472 42.6933 91.5939 43.28C90.9539 43.8667 90.5872 44.68 90.4939 45.72H97.4139ZM103.516 37.2V52H101.696V37.2H103.516ZM111.398 52.18C110.371 52.18 109.438 51.9467 108.598 51.48C107.771 51.0133 107.118 50.3533 106.638 49.5C106.171 48.6333 105.938 47.6333 105.938 46.5C105.938 45.38 106.178 44.3933 106.658 43.54C107.151 42.6733 107.818 42.0133 108.658 41.56C109.498 41.0933 110.438 40.86 111.478 40.86C112.518 40.86 113.458 41.0933 114.298 41.56C115.138 42.0133 115.798 42.6667 116.278 43.52C116.771 44.3733 117.018 45.3667 117.018 46.5C117.018 47.6333 116.765 48.6333 116.258 49.5C115.765 50.3533 115.091 51.0133 114.238 51.48C113.385 51.9467 112.438 52.18 111.398 52.18ZM111.398 50.58C112.051 50.58 112.665 50.4267 113.238 50.12C113.811 49.8133 114.271 49.3533 114.618 48.74C114.978 48.1267 115.158 47.38 115.158 46.5C115.158 45.62 114.985 44.8733 114.638 44.26C114.291 43.6467 113.838 43.1933 113.278 42.9C112.718 42.5933 112.111 42.44 111.458 42.44C110.791 42.44 110.178 42.5933 109.618 42.9C109.071 43.1933 108.631 43.6467 108.298 44.26C107.965 44.8733 107.798 45.62 107.798 46.5C107.798 47.3933 107.958 48.1467 108.278 48.76C108.611 49.3733 109.051 49.8333 109.598 50.14C110.145 50.4333 110.745 50.58 111.398 50.58ZM121.231 43.06C121.591 42.4333 122.124 41.9133 122.831 41.5C123.551 41.0733 124.384 40.86 125.331 40.86C126.304 40.86 127.184 41.0933 127.971 41.56C128.771 42.0267 129.398 42.6867 129.851 43.54C130.304 44.38 130.531 45.36 130.531 46.48C130.531 47.5867 130.304 48.5733 129.851 49.44C129.398 50.3067 128.771 50.98 127.971 51.46C127.184 51.94 126.304 52.18 125.331 52.18C124.398 52.18 123.571 51.9733 122.851 51.56C122.144 51.1333 121.604 50.6067 121.231 49.98V57.2H119.411V41.04H121.231V43.06ZM128.671 46.48C128.671 45.6533 128.504 44.9333 128.171 44.32C127.838 43.7067 127.384 43.24 126.811 42.92C126.251 42.6 125.631 42.44 124.951 42.44C124.284 42.44 123.664 42.6067 123.091 42.94C122.531 43.26 122.078 43.7333 121.731 44.36C121.398 44.9733 121.231 45.6867 121.231 46.5C121.231 47.3267 121.398 48.0533 121.731 48.68C122.078 49.2933 122.531 49.7667 123.091 50.1C123.664 50.42 124.284 50.58 124.951 50.58C125.631 50.58 126.251 50.42 126.811 50.1C127.384 49.7667 127.838 49.2933 128.171 48.68C128.504 48.0533 128.671 47.32 128.671 46.48ZM146.107 40.84C146.96 40.84 147.72 41.02 148.387 41.38C149.053 41.7267 149.58 42.2533 149.967 42.96C150.353 43.6667 150.547 44.5267 150.547 45.54V52H148.747V45.8C148.747 44.7067 148.473 43.8733 147.927 43.3C147.393 42.7133 146.667 42.42 145.747 42.42C144.8 42.42 144.047 42.7267 143.487 43.34C142.927 43.94 142.647 44.8133 142.647 45.96V52H140.847V45.8C140.847 44.7067 140.573 43.8733 140.027 43.3C139.493 42.7133 138.767 42.42 137.847 42.42C136.9 42.42 136.147 42.7267 135.587 43.34C135.027 43.94 134.747 44.8133 134.747 45.96V52H132.927V41.04H134.747V42.62C135.107 42.0467 135.587 41.6067 136.187 41.3C136.8 40.9933 137.473 40.84 138.207 40.84C139.127 40.84 139.94 41.0467 140.647 41.46C141.353 41.8733 141.88 42.48 142.227 43.28C142.533 42.5067 143.04 41.9067 143.747 41.48C144.453 41.0533 145.24 40.84 146.107 40.84ZM163.532 46.1C163.532 46.4467 163.512 46.8133 163.472 47.2H154.712C154.779 48.28 155.146 49.1267 155.812 49.74C156.492 50.34 157.312 50.64 158.272 50.64C159.059 50.64 159.712 50.46 160.232 50.1C160.766 49.7267 161.139 49.2333 161.352 48.62H163.312C163.019 49.6733 162.432 50.5333 161.552 51.2C160.672 51.8533 159.579 52.18 158.272 52.18C157.232 52.18 156.299 51.9467 155.472 51.48C154.659 51.0133 154.019 50.3533 153.552 49.5C153.086 48.6333 152.852 47.6333 152.852 46.5C152.852 45.3667 153.079 44.3733 153.532 43.52C153.986 42.6667 154.619 42.0133 155.432 41.56C156.259 41.0933 157.206 40.86 158.272 40.86C159.312 40.86 160.232 41.0867 161.032 41.54C161.832 41.9933 162.446 42.62 162.872 43.42C163.312 44.2067 163.532 45.1 163.532 46.1ZM161.652 45.72C161.652 45.0267 161.499 44.4333 161.192 43.94C160.886 43.4333 160.466 43.0533 159.932 42.8C159.412 42.5333 158.832 42.4 158.192 42.4C157.272 42.4 156.486 42.6933 155.832 43.28C155.192 43.8667 154.826 44.68 154.732 45.72H161.652ZM171.275 40.84C172.608 40.84 173.688 41.2467 174.515 42.06C175.341 42.86 175.755 44.02 175.755 45.54V52H173.955V45.8C173.955 44.7067 173.681 43.8733 173.135 43.3C172.588 42.7133 171.841 42.42 170.895 42.42C169.935 42.42 169.168 42.72 168.595 43.32C168.035 43.92 167.755 44.7933 167.755 45.94V52H165.935V41.04H167.755V42.6C168.115 42.04 168.601 41.6067 169.215 41.3C169.841 40.9933 170.528 40.84 171.275 40.84ZM180.948 42.54V49C180.948 49.5333 181.061 49.9133 181.288 50.14C181.514 50.3533 181.908 50.46 182.467 50.46H183.808V52H182.168C181.154 52 180.394 51.7667 179.888 51.3C179.381 50.8333 179.128 50.0667 179.128 49V42.54H177.708V41.04H179.128V38.28H180.948V41.04H183.808V42.54H180.948Z" fill="white"/>
<defs>
<clipPath id="clip0_4764_1265">
<rect width="35" height="35" fill="white" transform="translate(0 12.5)"/>
</clipPath>
</defs>
</svg>
