<svg width="119" height="60" viewBox="0 0 119 60" fill="none" xmlns="http://www.w3.org/2000/svg">
<g clip-path="url(#clip0_4764_1246)">
<path d="M33.9746 12.5H29.8047C29.2379 12.5 28.7793 12.9586 28.7793 13.5254V14.5508H20.3873C19.9626 13.3598 18.8351 12.5 17.5 12.5C16.1649 12.5 15.0374 13.3598 14.6127 14.5508H6.2207V13.5254C6.2207 12.9586 5.76208 12.5 5.19531 12.5H1.02539C0.458623 12.5 0 12.9586 0 13.5254V17.627C0 18.1937 0.458623 18.6523 1.02539 18.6523H5.19531C5.76208 18.6523 6.2207 18.1937 6.2207 17.627V16.5879H10.4319C6.87333 18.811 4.52689 22.7156 4.24642 27.0889C3.01608 27.4916 2.11914 28.6369 2.11914 30C2.11914 31.6963 3.49904 33.0762 5.19531 33.0762C6.89158 33.0762 8.27148 31.6963 8.27148 30C8.27148 28.6916 7.447 27.5792 6.29316 27.1353C6.64303 22.2595 10.0451 18.15 14.7775 16.9775C15.2893 17.9672 16.311 18.6523 17.5 18.6523C18.689 18.6523 19.7107 17.9672 20.2225 16.9775C24.9549 18.15 28.357 22.2595 28.7068 27.1352C27.553 27.5792 26.7285 28.6916 26.7285 30C26.7285 31.6963 28.1084 33.0762 29.8047 33.0762C31.501 33.0762 32.8809 31.6963 32.8809 30C32.8809 28.6369 31.9839 27.4916 30.7536 27.0889C30.4731 22.7156 28.1267 18.8247 24.5681 16.6016H28.7793V17.627C28.7793 18.1937 29.2379 18.6523 29.8047 18.6523H33.9746C34.5414 18.6523 35 18.1937 35 17.627V13.5254C35 12.9586 34.5414 12.5 33.9746 12.5ZM24.4761 46.2282C23.9397 44.5869 22.3945 43.3301 20.5762 43.3301H14.4238C12.6055 43.3301 11.0603 44.5869 10.5239 46.2282C10.3171 46.861 10.8555 47.5 11.5213 47.5H23.4787C24.1445 47.5 24.6829 46.861 24.4761 46.2282Z" fill="white"/>
<path d="M26.5563 33.5328L18.5254 21.4865V31.2143C19.7164 31.639 20.5762 32.7665 20.5762 34.1016C20.5762 35.7978 19.1963 37.1777 17.5 37.1777C15.8037 37.1777 14.4238 35.7978 14.4238 34.1016C14.4238 32.7665 15.2837 31.639 16.4746 31.2143V21.4865L8.44376 33.5328C8.17237 33.9393 8.22645 34.4811 8.57193 34.8266C10.4543 36.709 11.6576 39.134 12.122 41.7353C12.8343 41.4464 13.609 41.2793 14.4238 41.2793H20.5762C21.391 41.2793 22.1657 41.4463 22.878 41.7352C23.3424 39.1338 24.5457 36.709 26.4281 34.8266C26.7736 34.4811 26.8276 33.9393 26.5563 33.5328Z" fill="white"/>
<path d="M17.5 33.0762C16.9343 33.0762 16.4746 33.5358 16.4746 34.1016C16.4746 34.6673 16.9343 35.127 17.5 35.127C18.0657 35.127 18.5254 34.6673 18.5254 34.1016C18.5254 33.5358 18.0657 33.0762 17.5 33.0762Z" fill="white"/>
</g>
<path d="M53.32 8.06V16.88C53.32 18.12 53.62 19.04 54.22 19.64C54.8333 20.24 55.68 20.54 56.76 20.54C57.8267 20.54 58.66 20.24 59.26 19.64C59.8733 19.04 60.18 18.12 60.18 16.88V8.06H62V16.86C62 18.02 61.7667 19 61.3 19.8C60.8333 20.5867 60.2 21.1733 59.4 21.56C58.6133 21.9467 57.7267 22.14 56.74 22.14C55.7533 22.14 54.86 21.9467 54.06 21.56C53.2733 21.1733 52.6467 20.5867 52.18 19.8C51.7267 19 51.5 18.02 51.5 16.86V8.06H53.32ZM66.8561 8.06V22H65.0361V8.06H66.8561ZM76.758 3.16L71.278 25.4H69.478L74.938 3.16H76.758ZM81.2497 8.06V16.88C81.2497 18.12 81.5497 19.04 82.1497 19.64C82.763 20.24 83.6097 20.54 84.6897 20.54C85.7564 20.54 86.5897 20.24 87.1897 19.64C87.803 19.04 88.1097 18.12 88.1097 16.88V8.06H89.9297V16.86C89.9297 18.02 89.6964 19 89.2297 19.8C88.763 20.5867 88.1297 21.1733 87.3297 21.56C86.543 21.9467 85.6564 22.14 84.6697 22.14C83.683 22.14 82.7897 21.9467 81.9897 21.56C81.203 21.1733 80.5764 20.5867 80.1097 19.8C79.6564 19 79.4297 18.02 79.4297 16.86V8.06H81.2497ZM98.6658 15.04L102.946 22H100.886L97.5458 16.56L94.3658 22H92.3458L96.6058 15.04L92.3258 8.06H94.3658L97.7258 13.52L100.926 8.06H102.966L98.6658 15.04ZM55.88 38.06C57.4 38.06 58.7133 38.3467 59.82 38.92C60.94 39.48 61.7933 40.2867 62.38 41.34C62.98 42.3933 63.28 43.6333 63.28 45.06C63.28 46.4867 62.98 47.7267 62.38 48.78C61.7933 49.82 60.94 50.62 59.82 51.18C58.7133 51.7267 57.4 52 55.88 52H51.54V38.06H55.88ZM55.88 50.5C57.68 50.5 59.0533 50.0267 60 49.08C60.9467 48.12 61.42 46.78 61.42 45.06C61.42 43.3267 60.94 41.9733 59.98 41C59.0333 40.0267 57.6667 39.54 55.88 39.54H53.36V50.5H55.88ZM75.6806 46.1C75.6806 46.4467 75.6606 46.8133 75.6206 47.2H66.8606C66.9273 48.28 67.294 49.1267 67.9606 49.74C68.6406 50.34 69.4606 50.64 70.4206 50.64C71.2073 50.64 71.8606 50.46 72.3806 50.1C72.914 49.7267 73.2873 49.2333 73.5006 48.62H75.4606C75.1673 49.6733 74.5806 50.5333 73.7006 51.2C72.8206 51.8533 71.7273 52.18 70.4206 52.18C69.3806 52.18 68.4473 51.9467 67.6206 51.48C66.8073 51.0133 66.1673 50.3533 65.7006 49.5C65.234 48.6333 65.0006 47.6333 65.0006 46.5C65.0006 45.3667 65.2273 44.3733 65.6806 43.52C66.134 42.6667 66.7673 42.0133 67.5806 41.56C68.4073 41.0933 69.354 40.86 70.4206 40.86C71.4606 40.86 72.3806 41.0867 73.1806 41.54C73.9806 41.9933 74.594 42.62 75.0206 43.42C75.4606 44.2067 75.6806 45.1 75.6806 46.1ZM73.8006 45.72C73.8006 45.0267 73.6473 44.4333 73.3406 43.94C73.034 43.4333 72.614 43.0533 72.0806 42.8C71.5606 42.5333 70.9806 42.4 70.3406 42.4C69.4206 42.4 68.634 42.6933 67.9806 43.28C67.3406 43.8667 66.974 44.68 66.8806 45.72H73.8006ZM81.963 52.18C81.123 52.18 80.3696 52.04 79.703 51.76C79.0363 51.4667 78.5096 51.0667 78.123 50.56C77.7363 50.04 77.523 49.4467 77.483 48.78H79.363C79.4163 49.3267 79.6696 49.7733 80.123 50.12C80.5896 50.4667 81.1963 50.64 81.943 50.64C82.6363 50.64 83.183 50.4867 83.583 50.18C83.983 49.8733 84.183 49.4867 84.183 49.02C84.183 48.54 83.9696 48.1867 83.543 47.96C83.1163 47.72 82.4563 47.4867 81.563 47.26C80.7496 47.0467 80.083 46.8333 79.563 46.62C79.0563 46.3933 78.6163 46.0667 78.243 45.64C77.883 45.2 77.703 44.6267 77.703 43.92C77.703 43.36 77.8696 42.8467 78.203 42.38C78.5363 41.9133 79.0096 41.5467 79.623 41.28C80.2363 41 80.9363 40.86 81.723 40.86C82.9363 40.86 83.9163 41.1667 84.663 41.78C85.4096 42.3933 85.8096 43.2333 85.863 44.3H84.043C84.003 43.7267 83.7696 43.2667 83.343 42.92C82.9296 42.5733 82.3696 42.4 81.663 42.4C81.0096 42.4 80.4896 42.54 80.103 42.82C79.7163 43.1 79.523 43.4667 79.523 43.92C79.523 44.28 79.6363 44.58 79.863 44.82C80.103 45.0467 80.3963 45.2333 80.743 45.38C81.103 45.5133 81.5963 45.6667 82.223 45.84C83.0096 46.0533 83.6496 46.2667 84.143 46.48C84.6363 46.68 85.0563 46.9867 85.403 47.4C85.763 47.8133 85.9496 48.3533 85.963 49.02C85.963 49.62 85.7963 50.16 85.463 50.64C85.1296 51.12 84.6563 51.5 84.043 51.78C83.443 52.0467 82.7496 52.18 81.963 52.18ZM89.4722 39.26C89.1255 39.26 88.8322 39.14 88.5922 38.9C88.3522 38.66 88.2322 38.3667 88.2322 38.02C88.2322 37.6733 88.3522 37.38 88.5922 37.14C88.8322 36.9 89.1255 36.78 89.4722 36.78C89.8055 36.78 90.0855 36.9 90.3122 37.14C90.5522 37.38 90.6722 37.6733 90.6722 38.02C90.6722 38.3667 90.5522 38.66 90.3122 38.9C90.0855 39.14 89.8055 39.26 89.4722 39.26ZM90.3522 41.04V52H88.5322V41.04H90.3522ZM97.9741 40.86C98.9207 40.86 99.7474 41.0667 100.454 41.48C101.174 41.8933 101.707 42.4133 102.054 43.04V41.04H103.894V52.24C103.894 53.24 103.681 54.1267 103.254 54.9C102.827 55.6867 102.214 56.3 101.414 56.74C100.627 57.18 99.7074 57.4 98.6541 57.4C97.2141 57.4 96.0141 57.06 95.0541 56.38C94.0941 55.7 93.5274 54.7733 93.3541 53.6H95.1541C95.3541 54.2667 95.7674 54.8 96.3941 55.2C97.0207 55.6133 97.7741 55.82 98.6541 55.82C99.6541 55.82 100.467 55.5067 101.094 54.88C101.734 54.2533 102.054 53.3733 102.054 52.24V49.94C101.694 50.58 101.161 51.1133 100.454 51.54C99.7474 51.9667 98.9207 52.18 97.9741 52.18C97.0007 52.18 96.1141 51.94 95.3141 51.46C94.5274 50.98 93.9074 50.3067 93.4541 49.44C93.0007 48.5733 92.7741 47.5867 92.7741 46.48C92.7741 45.36 93.0007 44.38 93.4541 43.54C93.9074 42.6867 94.5274 42.0267 95.3141 41.56C96.1141 41.0933 97.0007 40.86 97.9741 40.86ZM102.054 46.5C102.054 45.6733 101.887 44.9533 101.554 44.34C101.221 43.7267 100.767 43.26 100.194 42.94C99.6341 42.6067 99.0141 42.44 98.3341 42.44C97.6541 42.44 97.0341 42.6 96.4741 42.92C95.9141 43.24 95.4674 43.7067 95.1341 44.32C94.8007 44.9333 94.6341 45.6533 94.6341 46.48C94.6341 47.32 94.8007 48.0533 95.1341 48.68C95.4674 49.2933 95.9141 49.7667 96.4741 50.1C97.0341 50.42 97.6541 50.58 98.3341 50.58C99.0141 50.58 99.6341 50.42 100.194 50.1C100.767 49.7667 101.221 49.2933 101.554 48.68C101.887 48.0533 102.054 47.3267 102.054 46.5ZM112.31 40.84C113.643 40.84 114.723 41.2467 115.55 42.06C116.376 42.86 116.79 44.02 116.79 45.54V52H114.99V45.8C114.99 44.7067 114.716 43.8733 114.17 43.3C113.623 42.7133 112.876 42.42 111.93 42.42C110.97 42.42 110.203 42.72 109.63 43.32C109.07 43.92 108.79 44.7933 108.79 45.94V52H106.97V41.04H108.79V42.6C109.15 42.04 109.636 41.6067 110.25 41.3C110.876 40.9933 111.563 40.84 112.31 40.84Z" fill="white"/>
<defs>
<clipPath id="clip0_4764_1246">
<rect width="35" height="35" fill="white" transform="translate(0 12.5)"/>
</clipPath>
</defs>
</svg>
